<svg version="1.1" id="Layer_1" xmlns="http://www.w3.org/2000/svg" xmlns:xlink="http://www.w3.org/1999/xlink" x="0px" y="0px"
	 width="100%" viewBox="0 0 1024 1024" enable-background="new 0 0 1024 1024" xml:space="preserve">
<path fill="transparent" opacity="1.000000" stroke="none"
	d="
M1.000000,236.000000 
	C1.000000,157.333344 1.000000,79.166687 1.000000,1.000021 
	C342.333282,1.000014 683.666565,1.000014 1025.000000,1.000007 
	C1025.000000,342.333252 1025.000000,683.666504 1025.000000,1024.999756 
	C683.666809,1024.999878 342.333588,1024.999878 1.000197,1025.000000 
	C1.000000,762.166687 1.000000,499.333344 1.000000,236.000000 
M20.022186,943.140381 
	C23.032400,962.593140 31.664387,978.862366 47.484768,990.898315 
	C59.347523,999.923279 72.635696,1005.908203 87.703659,1005.913757 
	C371.191467,1006.018250 654.679260,1005.990845 938.167114,1005.982056 
	C939.828796,1005.981995 941.524109,1006.045288 943.146912,1005.757935 
	C960.447998,1002.694214 975.465942,995.541138 987.426514,982.184204 
	C998.964905,969.298706 1005.853943,954.389343 1005.864685,937.262634 
	C1006.041626,654.441589 1005.998291,371.620300 1005.920471,88.799141 
	C1005.919250,84.383308 1005.253723,79.874992 1004.230652,75.568443 
	C1000.187561,58.549931 991.408142,44.372231 977.279053,33.968342 
	C966.184204,25.798738 953.811401,20.070179 939.733765,20.066423 
	C655.245972,19.990515 370.758179,20.009544 86.270393,20.014818 
	C84.605385,20.014851 82.903267,19.877584 81.281029,20.161671 
	C61.849258,23.564571 45.787441,32.735981 33.971054,48.663147 
	C24.965511,60.801617 19.941746,74.302315 19.946478,89.744255 
	C20.033554,373.898712 20.011467,658.053162 20.022186,943.140381 
z"/>
<path fill="#2C4367" opacity="1.000000" stroke="none"
	d="
M20.017326,942.674011 
	C20.011467,658.053162 20.033554,373.898712 19.946478,89.744255 
	C19.941746,74.302315 24.965511,60.801617 33.971054,48.663147 
	C45.787441,32.735981 61.849258,23.564571 81.281029,20.161671 
	C82.903267,19.877584 84.605385,20.014851 86.270393,20.014818 
	C370.758179,20.009544 655.245972,19.990515 939.733765,20.066423 
	C953.811401,20.070179 966.184204,25.798738 977.279053,33.968342 
	C991.408142,44.372231 1000.187561,58.549931 1004.230652,75.568443 
	C1005.253723,79.874992 1005.919250,84.383308 1005.920471,88.799141 
	C1005.998291,371.620300 1006.041626,654.441589 1005.864685,937.262634 
	C1005.853943,954.389343 998.964905,969.298706 987.426514,982.184204 
	C975.465942,995.541138 960.447998,1002.694214 943.146912,1005.757935 
	C941.524109,1006.045288 939.828796,1005.981995 938.167114,1005.982056 
	C654.679260,1005.990845 371.191467,1006.018250 87.703659,1005.913757 
	C72.635696,1005.908203 59.347523,999.923279 47.484768,990.898315 
	C31.664387,978.862366 23.032400,962.593140 20.017326,942.674011 
M973.736938,967.195068 
	C981.933228,957.350098 984.514648,945.879761 984.502686,933.278870 
	C984.382874,807.125549 984.426453,680.972046 984.422485,554.818604 
	C984.417786,402.167969 984.421570,249.517349 984.368652,96.866745 
	C984.366577,90.888298 984.637817,84.730309 983.376648,78.963234 
	C978.282410,55.668053 959.424072,41.414650 934.197327,41.412430 
	C653.393433,41.387703 372.589569,41.391914 91.785706,41.442734 
	C87.481018,41.443516 83.098274,41.736893 78.885178,42.568577 
	C59.157524,46.462898 41.319950,65.243774 41.352455,92.362297 
	C41.687199,371.665924 41.557674,650.970154 41.567516,930.274170 
	C41.567646,933.938660 41.030212,937.772217 41.906986,941.232117 
	C43.679802,948.227905 45.107883,955.702026 48.715462,961.767029 
	C58.641678,978.454834 74.294769,984.697388 93.431992,984.688904 
	C373.069244,984.564941 652.706604,984.604431 932.343933,984.593079 
	C935.007568,984.592957 937.675293,984.498474 940.334229,984.336304 
	C953.683350,983.522278 964.514038,977.677734 973.736938,967.195068 
z"/>
<path fill="#FFFFFF" opacity="1.000000" stroke="none"
	d="
M973.507935,967.470337 
	C964.514038,977.677734 953.683350,983.522278 940.334229,984.336304 
	C937.675293,984.498474 935.007568,984.592957 932.343933,984.593079 
	C652.706604,984.604431 373.069244,984.564941 93.431992,984.688904 
	C74.294769,984.697388 58.641678,978.454834 48.715462,961.767029 
	C45.107883,955.702026 43.679802,948.227905 41.906986,941.232117 
	C41.030212,937.772217 41.567646,933.938660 41.567516,930.274170 
	C41.557674,650.970154 41.687199,371.665924 41.352455,92.362297 
	C41.319950,65.243774 59.157524,46.462898 78.885178,42.568577 
	C83.098274,41.736893 87.481018,41.443516 91.785706,41.442734 
	C372.589569,41.391914 653.393433,41.387703 934.197327,41.412430 
	C959.424072,41.414650 978.282410,55.668053 983.376648,78.963234 
	C984.637817,84.730309 984.366577,90.888298 984.368652,96.866745 
	C984.421570,249.517349 984.417786,402.167969 984.422485,554.818604 
	C984.426453,680.972046 984.382874,807.125549 984.502686,933.278870 
	C984.514648,945.879761 981.933228,957.350098 973.507935,967.470337 
M500.452209,192.075546 
	C498.682587,189.657608 496.995087,187.174347 495.130981,184.831573 
	C470.012024,153.262955 436.745026,134.976212 398.029419,125.959610 
	C366.532349,118.624161 334.636444,118.087090 302.682098,122.338921 
	C274.332397,126.111115 247.583603,134.988571 223.112411,149.902740 
	C182.907440,174.405991 156.711731,210.175858 141.008423,254.035156 
	C128.435776,289.150482 124.210350,325.462280 125.875084,362.620697 
	C127.301765,394.465607 132.912567,425.393036 144.931320,455.023468 
	C164.771027,503.935303 197.609024,541.028870 246.533630,561.660461 
	C299.636261,584.054016 354.710449,586.127075 409.857178,570.112000 
	C470.059937,552.628540 508.046875,512.506287 524.362122,452.000244 
	C526.490234,444.108063 527.745911,435.980621 529.473816,427.633209 
	C498.401154,427.633209 468.426819,427.633209 438.063293,427.633209 
	C437.685516,429.222778 437.277435,430.803009 436.935852,432.397461 
	C431.149078,459.409180 417.282562,480.493378 392.210754,493.346741 
	C378.186157,500.536682 363.127014,503.557861 347.527893,504.556671 
	C322.361267,506.168091 298.394440,502.083099 276.328461,489.416351 
	C251.853012,475.366486 236.180618,453.954376 226.066574,428.092102 
	C214.888535,399.509155 212.133743,369.636261 212.916580,339.288757 
	C213.544022,314.965332 217.757324,291.283997 227.120270,268.729828 
	C237.289810,244.232635 252.722931,223.890839 276.163849,210.729675 
	C306.890961,193.477585 339.738770,191.067596 373.396820,199.425491 
	C400.910370,206.257614 421.750214,221.922455 432.640289,248.934265 
	C434.975464,254.726471 436.426117,260.875275 438.262573,266.789886 
	C468.601807,266.789886 498.729553,266.789886 529.044800,266.789886 
	C524.994934,239.870636 516.318726,214.983673 500.452209,192.075546 
M585.077637,485.499969 
	C585.077637,553.271179 585.077637,621.042419 585.077637,688.833252 
	C611.574463,688.833252 637.473633,688.833252 664.070251,688.833252 
	C664.070251,636.417664 664.070251,584.334229 664.070251,531.143982 
	C665.747864,533.396240 666.630005,534.602966 667.534973,535.792236 
	C682.035889,554.848389 699.675293,569.389221 723.556946,575.142273 
	C745.016052,580.311890 766.546143,580.210388 787.919983,575.333679 
	C828.984985,565.964233 859.317444,541.721069 877.722107,504.444763 
	C908.169189,442.778259 908.377136,379.359680 879.496399,317.463104 
	C855.778870,266.632294 813.842896,240.191605 757.109131,239.062683 
	C730.734924,238.537888 706.001709,244.015884 685.743958,262.218170 
	C678.022644,269.156067 671.278809,277.181854 663.790161,285.025421 
	C663.790161,272.016083 663.790161,259.007019 663.790161,245.790588 
	C637.270142,245.790588 611.352783,245.790588 585.077637,245.790588 
	C585.077637,325.558105 585.077637,405.029022 585.077637,485.499969 
M533.861938,806.365662 
	C521.890076,802.383728 511.619324,804.091614 504.043549,816.313538 
	C500.674133,807.729431 494.480774,804.718689 486.505829,804.464417 
	C478.461090,804.207886 472.075500,807.229980 466.970642,813.720947 
	C466.819519,811.171265 466.668396,808.621582 466.512573,805.992920 
	C461.334900,805.992920 456.571350,805.992920 451.540955,805.992920 
	C451.540955,826.999023 451.540955,847.740051 451.540955,868.723022 
	C456.795258,868.723022 461.848267,868.723022 466.830475,868.723022 
	C466.996216,868.134033 467.157104,867.827576 467.158020,867.520508 
	C467.189178,857.024231 467.066040,846.524780 467.299866,836.033264 
	C467.380219,832.427002 467.860657,828.674622 469.018066,825.282349 
	C470.932739,819.670471 476.728363,816.951843 482.811188,818.121826 
	C487.323029,818.989624 489.230469,821.770386 489.506165,828.346252 
	C489.673553,832.338318 489.568878,836.342224 489.571167,840.340820 
	C489.576599,849.804260 489.572876,859.267639 489.572876,868.818970 
	C495.056458,868.818970 500.012573,868.818970 505.457123,868.818970 
	C505.457123,858.171570 505.269714,847.700623 505.548218,837.242065 
	C505.661560,832.985474 506.191986,828.545593 507.598633,824.565857 
	C509.464417,819.286987 515.514709,816.877563 521.318420,818.180359 
	C526.712585,819.391235 527.579712,823.635437 527.732239,828.143677 
	C527.901245,833.136780 527.792603,838.139465 527.795166,843.137939 
	C527.799622,851.595581 527.796387,860.053162 527.796387,868.704468 
	C533.249146,868.704468 538.297485,868.704468 543.091980,868.704468 
	C543.091980,852.285217 543.319397,836.166687 542.969910,820.060730 
	C542.845764,814.338989 539.840210,809.602417 533.861938,806.365662 
M289.961487,806.449219 
	C291.748505,805.330444 293.535553,804.211609 295.212646,803.161682 
	C291.677338,792.700989 284.259460,786.991882 271.527740,784.566528 
	C249.172836,780.307983 230.010086,791.476379 225.389389,812.207581 
	C223.857758,819.079407 223.666061,826.443481 224.056808,833.516418 
	C225.648300,862.323059 253.770660,878.981323 280.093079,866.915161 
	C288.961426,862.849915 294.040161,855.697998 296.376068,846.167236 
	C291.765106,843.811890 287.587830,841.678040 283.420837,839.549438 
	C282.772003,840.813904 282.491913,841.236511 282.326569,841.700012 
	C278.718292,851.816895 272.524292,856.156067 262.072021,855.872437 
	C252.140472,855.603027 244.264908,850.293274 242.589874,840.506409 
	C241.186737,832.308044 241.154968,823.607422 242.168930,815.331726 
	C243.393707,805.335571 249.724960,799.974426 259.209167,798.410889 
	C269.002075,796.796448 276.143127,800.220459 281.296539,808.998779 
	C281.630188,809.567200 281.979950,810.126160 282.442902,810.888123 
	C285.084503,809.349365 287.214111,808.108826 289.961487,806.449219 
M324.223206,858.482239 
	C324.225342,851.155884 324.028870,843.821777 324.314270,836.506470 
	C324.454773,832.904358 324.982483,829.150085 326.226318,825.795166 
	C328.420380,819.877197 334.856628,816.921021 341.421448,818.133301 
	C346.671539,819.102783 349.029205,822.489502 349.201996,829.747437 
	C349.340637,835.572021 349.260864,841.401917 349.266479,847.229492 
	C349.273315,854.344666 349.268097,861.459839 349.268097,868.692871 
	C354.859436,868.692871 359.915070,868.692871 365.009796,868.692871 
	C365.009796,853.407715 365.395355,838.426636 364.891357,823.475525 
	C364.465820,810.851562 356.066315,803.995667 343.412323,804.457214 
	C335.761444,804.736328 329.823273,808.069397 325.250854,814.307495 
	C324.888519,814.120911 324.526154,813.934326 324.163818,813.747742 
	C324.163818,802.618591 324.163818,791.489441 324.163818,780.499817 
	C318.467407,780.499817 313.567139,780.499817 308.526093,780.499817 
	C308.526093,810.085327 308.526093,839.313843 308.526093,868.706360 
	C313.841949,868.706360 318.897491,868.706360 324.223206,868.706360 
	C324.223206,865.429504 324.223206,862.451660 324.223206,858.482239 
M562.718018,819.499817 
	C562.718018,835.907349 562.718018,852.314819 562.718018,868.615967 
	C568.625671,868.615967 573.842285,868.615967 579.344543,868.615967 
	C579.344543,858.278259 579.344543,848.325439 579.344543,837.807617 
	C582.088135,837.807617 584.536621,837.892395 586.977234,837.790283 
	C592.292664,837.567932 597.677002,837.709595 602.902649,836.880371 
	C615.534546,834.875854 623.161377,825.282532 623.370483,811.853271 
	C623.579712,798.411377 616.351807,787.587036 603.766418,786.310486 
	C590.328552,784.947571 576.645325,786.003479 562.718018,786.003479 
	C562.718018,796.563293 562.718018,807.531494 562.718018,819.499817 
M401.240723,805.508728 
	C392.866516,807.650452 386.382538,812.355164 382.801697,820.274841 
	C377.419281,832.179016 377.551605,844.314331 383.485260,855.913269 
	C389.425568,867.525269 404.648193,872.784241 419.700897,869.312866 
	C427.709259,867.466003 433.264160,862.777527 437.071045,855.226990 
	C433.321136,852.842957 429.725006,850.556702 426.206482,848.319702 
	C418.731384,856.525635 411.744293,858.644531 403.978363,855.338318 
	C398.523010,853.015808 395.811310,848.226074 396.047913,840.817017 
	C409.615601,840.817017 423.205933,840.817017 436.696533,840.817017 
	C440.817932,817.433411 429.851959,804.654236 410.976868,804.523987 
	C407.995453,804.503357 405.010498,804.998291 401.240723,805.508728 
M680.944519,815.838196 
	C678.060059,808.946777 672.480652,805.851868 665.423279,804.970642 
	C652.580811,803.367065 641.116760,805.982788 631.758850,815.823303 
	C634.201233,819.473022 636.385864,822.737732 638.754578,826.277405 
	C640.395691,824.892578 641.590820,823.777710 642.891846,822.804443 
	C648.737244,818.432190 655.178711,815.884399 662.461853,818.055969 
	C664.259949,818.592041 666.578186,821.012268 666.674988,822.681274 
	C666.788757,824.644714 665.222534,827.445679 663.516968,828.590637 
	C661.293335,830.083313 658.218750,830.311401 655.507751,831.074341 
	C650.248413,832.554565 644.756653,833.492371 639.782227,835.633179 
	C632.709839,838.677002 629.643066,844.974792 630.333008,852.730164 
	C631.102844,861.384460 635.086243,867.030457 642.664551,869.045044 
	C652.771667,871.731812 661.826172,870.386597 668.053711,860.113708 
	C669.164124,861.986816 669.881897,863.424011 670.805298,864.713989 
	C673.903992,869.042725 682.902100,871.122314 688.683594,868.476379 
	C693.716858,866.172913 689.317200,862.035156 690.031372,858.829956 
	C690.187439,858.129333 689.796509,857.306824 689.667175,856.593567 
	C683.159729,856.772278 682.631287,856.260437 682.585754,849.912170 
	C682.559448,846.248291 682.729858,842.576538 682.548889,838.921326 
	C682.180115,831.475769 681.633423,824.038940 680.944519,815.838196 
M762.253174,842.170715 
	C763.675293,841.770264 765.094543,841.034912 766.520020,841.022583 
	C777.684998,840.926270 788.851990,841.030945 800.015991,840.887207 
	C801.368713,840.869751 803.550903,840.061035 803.920044,839.080994 
	C807.134216,830.547852 802.201538,815.020996 794.817810,809.550476 
	C783.321350,801.032654 762.440857,803.494751 753.270813,814.449463 
	C744.641724,824.757751 743.338074,844.272400 750.465149,856.447205 
	C756.648315,867.009521 770.156128,872.311523 784.608704,869.750061 
	C793.327332,868.204956 799.781433,863.611328 803.747620,855.198242 
	C799.959351,852.787048 796.383972,850.511353 792.485413,848.029968 
	C787.832275,856.305847 780.945129,857.850647 772.899963,856.026794 
	C766.028503,854.469055 763.411743,849.329163 762.253174,842.170715 
M701.264648,844.499878 
	C701.264648,852.596497 701.264648,860.693115 701.264648,868.776245 
	C706.907288,868.776245 711.848938,868.776245 717.235413,868.776245 
	C717.235413,858.768005 717.132019,848.989014 717.258789,839.212952 
	C717.466858,823.155823 722.606628,818.634644 738.584045,820.610107 
	C739.373352,816.779541 740.347229,812.932312 740.841309,809.024292 
	C740.961487,808.073425 739.734070,806.372437 738.734192,805.954346 
	C732.565796,803.375671 724.376831,805.811768 720.368835,811.185669 
	C719.456604,812.408691 718.614868,813.684265 717.740662,814.935669 
	C717.409363,814.819763 717.078064,814.703796 716.746765,814.587830 
	C716.746765,811.717773 716.746765,808.847656 716.746765,805.954468 
	C711.413452,805.954468 706.630676,805.954468 701.264648,805.954468 
	C701.264648,818.619568 701.264648,831.059692 701.264648,844.499878 
z"/>
<path fill="#2B4266" opacity="1.000000" stroke="none"
	d="
M500.669556,192.364075 
	C516.318726,214.983673 524.994934,239.870636 529.044800,266.789886 
	C498.729553,266.789886 468.601807,266.789886 438.262573,266.789886 
	C436.426117,260.875275 434.975464,254.726471 432.640289,248.934265 
	C421.750214,221.922455 400.910370,206.257614 373.396820,199.425491 
	C339.738770,191.067596 306.890961,193.477585 276.163849,210.729675 
	C252.722931,223.890839 237.289810,244.232635 227.120270,268.729828 
	C217.757324,291.283997 213.544022,314.965332 212.916580,339.288757 
	C212.133743,369.636261 214.888535,399.509155 226.066574,428.092102 
	C236.180618,453.954376 251.853012,475.366486 276.328461,489.416351 
	C298.394440,502.083099 322.361267,506.168091 347.527893,504.556671 
	C363.127014,503.557861 378.186157,500.536682 392.210754,493.346741 
	C417.282562,480.493378 431.149078,459.409180 436.935852,432.397461 
	C437.277435,430.803009 437.685516,429.222778 438.063293,427.633209 
	C468.426819,427.633209 498.401154,427.633209 529.473816,427.633209 
	C527.745911,435.980621 526.490234,444.108063 524.362122,452.000244 
	C508.046875,512.506287 470.059937,552.628540 409.857178,570.112000 
	C354.710449,586.127075 299.636261,584.054016 246.533630,561.660461 
	C197.609024,541.028870 164.771027,503.935303 144.931320,455.023468 
	C132.912567,425.393036 127.301765,394.465607 125.875084,362.620697 
	C124.210350,325.462280 128.435776,289.150482 141.008423,254.035156 
	C156.711731,210.175858 182.907440,174.405991 223.112411,149.902740 
	C247.583603,134.988571 274.332397,126.111115 302.682098,122.338921 
	C334.636444,118.087090 366.532349,118.624161 398.029419,125.959610 
	C436.745026,134.976212 470.012024,153.262955 495.130981,184.831573 
	C496.995087,187.174347 498.682587,189.657608 500.669556,192.364075 
z"/>
<path fill="#2B4266" opacity="1.000000" stroke="none"
	d="
M585.077637,484.999939 
	C585.077637,405.029022 585.077637,325.558105 585.077637,245.790588 
	C611.352783,245.790588 637.270142,245.790588 663.790161,245.790588 
	C663.790161,259.007019 663.790161,272.016083 663.790161,285.025421 
	C671.278809,277.181854 678.022644,269.156067 685.743958,262.218170 
	C706.001709,244.015884 730.734924,238.537888 757.109131,239.062683 
	C813.842896,240.191605 855.778870,266.632294 879.496399,317.463104 
	C908.377136,379.359680 908.169189,442.778259 877.722107,504.444763 
	C859.317444,541.721069 828.984985,565.964233 787.919983,575.333679 
	C766.546143,580.210388 745.016052,580.311890 723.556946,575.142273 
	C699.675293,569.389221 682.035889,554.848389 667.534973,535.792236 
	C666.630005,534.602966 665.747864,533.396240 664.070251,531.143982 
	C664.070251,584.334229 664.070251,636.417664 664.070251,688.833252 
	C637.473633,688.833252 611.574463,688.833252 585.077637,688.833252 
	C585.077637,621.042419 585.077637,553.271179 585.077637,484.999939 
M697.789612,500.765900 
	C731.822876,520.858887 784.692627,514.379639 808.001160,466.779999 
	C817.880432,446.605042 821.561523,425.251892 820.369995,402.843872 
	C819.266113,382.085205 815.004028,362.342590 804.168396,344.334625 
	C785.848816,313.888763 753.720825,301.165253 720.200867,308.533234 
	C693.248901,314.457581 675.031555,331.389404 664.223267,356.074554 
	C650.333557,387.797424 650.280457,420.444794 660.885010,453.093872 
	C667.347717,472.991119 678.883118,489.364014 697.789612,500.765900 
z"/>
<path fill="#2E4468" opacity="1.000000" stroke="none"
	d="
M534.186096,806.565857 
	C539.840210,809.602417 542.845764,814.338989 542.969910,820.060730 
	C543.319397,836.166687 543.091980,852.285217 543.091980,868.704468 
	C538.297485,868.704468 533.249146,868.704468 527.796387,868.704468 
	C527.796387,860.053162 527.799622,851.595581 527.795166,843.137939 
	C527.792603,838.139465 527.901245,833.136780 527.732239,828.143677 
	C527.579712,823.635437 526.712585,819.391235 521.318420,818.180359 
	C515.514709,816.877563 509.464417,819.286987 507.598633,824.565857 
	C506.191986,828.545593 505.661560,832.985474 505.548218,837.242065 
	C505.269714,847.700623 505.457123,858.171570 505.457123,868.818970 
	C500.012573,868.818970 495.056458,868.818970 489.572876,868.818970 
	C489.572876,859.267639 489.576599,849.804260 489.571167,840.340820 
	C489.568878,836.342224 489.673553,832.338318 489.506165,828.346252 
	C489.230469,821.770386 487.323029,818.989624 482.811188,818.121826 
	C476.728363,816.951843 470.932739,819.670471 469.018066,825.282349 
	C467.860657,828.674622 467.380219,832.427002 467.299866,836.033264 
	C467.066040,846.524780 467.189178,857.024231 467.158020,867.520508 
	C467.157104,867.827576 466.996216,868.134033 466.830475,868.723022 
	C461.848267,868.723022 456.795258,868.723022 451.540955,868.723022 
	C451.540955,847.740051 451.540955,826.999023 451.540955,805.992920 
	C456.571350,805.992920 461.334900,805.992920 466.512573,805.992920 
	C466.668396,808.621582 466.819519,811.171265 466.970642,813.720947 
	C472.075500,807.229980 478.461090,804.207886 486.505829,804.464417 
	C494.480774,804.718689 500.674133,807.729431 504.043549,816.313538 
	C511.619324,804.091614 521.890076,802.383728 534.186096,806.565857 
z"/>
<path fill="#2D4467" opacity="1.000000" stroke="none"
	d="
M289.652588,806.658752 
	C287.214111,808.108826 285.084503,809.349365 282.442902,810.888123 
	C281.979950,810.126160 281.630188,809.567200 281.296539,808.998779 
	C276.143127,800.220459 269.002075,796.796448 259.209167,798.410889 
	C249.724960,799.974426 243.393707,805.335571 242.168930,815.331726 
	C241.154968,823.607422 241.186737,832.308044 242.589874,840.506409 
	C244.264908,850.293274 252.140472,855.603027 262.072021,855.872437 
	C272.524292,856.156067 278.718292,851.816895 282.326569,841.700012 
	C282.491913,841.236511 282.772003,840.813904 283.420837,839.549438 
	C287.587830,841.678040 291.765106,843.811890 296.376068,846.167236 
	C294.040161,855.697998 288.961426,862.849915 280.093079,866.915161 
	C253.770660,878.981323 225.648300,862.323059 224.056808,833.516418 
	C223.666061,826.443481 223.857758,819.079407 225.389389,812.207581 
	C230.010086,791.476379 249.172836,780.307983 271.527740,784.566528 
	C284.259460,786.991882 291.677338,792.700989 295.212646,803.161682 
	C293.535553,804.211609 291.748505,805.330444 289.652588,806.658752 
z"/>
<path fill="#2F4568" opacity="1.000000" stroke="none"
	d="
M324.223206,858.978027 
	C324.223206,862.451660 324.223206,865.429504 324.223206,868.706360 
	C318.897491,868.706360 313.841949,868.706360 308.526093,868.706360 
	C308.526093,839.313843 308.526093,810.085327 308.526093,780.499817 
	C313.567139,780.499817 318.467407,780.499817 324.163818,780.499817 
	C324.163818,791.489441 324.163818,802.618591 324.163818,813.747742 
	C324.526154,813.934326 324.888519,814.120911 325.250854,814.307495 
	C329.823273,808.069397 335.761444,804.736328 343.412323,804.457214 
	C356.066315,803.995667 364.465820,810.851562 364.891357,823.475525 
	C365.395355,838.426636 365.009796,853.407715 365.009796,868.692871 
	C359.915070,868.692871 354.859436,868.692871 349.268097,868.692871 
	C349.268097,861.459839 349.273315,854.344666 349.266479,847.229492 
	C349.260864,841.401917 349.340637,835.572021 349.201996,829.747437 
	C349.029205,822.489502 346.671539,819.102783 341.421448,818.133301 
	C334.856628,816.921021 328.420380,819.877197 326.226318,825.795166 
	C324.982483,829.150085 324.454773,832.904358 324.314270,836.506470 
	C324.028870,843.821777 324.225342,851.155884 324.223206,858.978027 
z"/>
<path fill="#2C4266" opacity="1.000000" stroke="none"
	d="
M562.718018,818.999756 
	C562.718018,807.531494 562.718018,796.563293 562.718018,786.003479 
	C576.645325,786.003479 590.328552,784.947571 603.766418,786.310486 
	C616.351807,787.587036 623.579712,798.411377 623.370483,811.853271 
	C623.161377,825.282532 615.534546,834.875854 602.902649,836.880371 
	C597.677002,837.709595 592.292664,837.567932 586.977234,837.790283 
	C584.536621,837.892395 582.088135,837.807617 579.344543,837.807617 
	C579.344543,848.325439 579.344543,858.278259 579.344543,868.615967 
	C573.842285,868.615967 568.625671,868.615967 562.718018,868.615967 
	C562.718018,852.314819 562.718018,835.907349 562.718018,818.999756 
M592.198730,798.133057 
	C587.954590,798.133057 583.710510,798.133057 579.447998,798.133057 
	C579.447998,807.290039 579.447998,815.685730 579.447998,824.316956 
	C580.675049,824.431641 581.640808,824.607361 582.604492,824.597168 
	C586.756592,824.553223 590.930298,824.698730 595.055298,824.324768 
	C603.409973,823.567322 607.424805,818.547729 606.736450,810.166565 
	C606.088928,802.282166 602.532043,799.147522 592.198730,798.133057 
z"/>
<path fill="#2D4468" opacity="1.000000" stroke="none"
	d="
M401.633942,805.381775 
	C405.010498,804.998291 407.995453,804.503357 410.976868,804.523987 
	C429.851959,804.654236 440.817932,817.433411 436.696533,840.817017 
	C423.205933,840.817017 409.615601,840.817017 396.047913,840.817017 
	C395.811310,848.226074 398.523010,853.015808 403.978363,855.338318 
	C411.744293,858.644531 418.731384,856.525635 426.206482,848.319702 
	C429.725006,850.556702 433.321136,852.842957 437.071045,855.226990 
	C433.264160,862.777527 427.709259,867.466003 419.700897,869.312866 
	C404.648193,872.784241 389.425568,867.525269 383.485260,855.913269 
	C377.551605,844.314331 377.419281,832.179016 382.801697,820.274841 
	C386.382538,812.355164 392.866516,807.650452 401.633942,805.381775 
M413.752319,817.207642 
	C402.526764,816.186340 396.884369,820.407959 396.307098,830.395264 
	C404.842743,830.395264 413.366547,830.395264 422.068176,830.395264 
	C422.247284,824.207397 420.475494,819.618469 413.752319,817.207642 
z"/>
<path fill="#2F4569" opacity="1.000000" stroke="none"
	d="
M681.052246,816.218384 
	C681.633423,824.038940 682.180115,831.475769 682.548889,838.921326 
	C682.729858,842.576538 682.559448,846.248291 682.585754,849.912170 
	C682.631287,856.260437 683.159729,856.772278 689.667175,856.593567 
	C689.796509,857.306824 690.187439,858.129333 690.031372,858.829956 
	C689.317200,862.035156 693.716858,866.172913 688.683594,868.476379 
	C682.902100,871.122314 673.903992,869.042725 670.805298,864.713989 
	C669.881897,863.424011 669.164124,861.986816 668.053711,860.113708 
	C661.826172,870.386597 652.771667,871.731812 642.664551,869.045044 
	C635.086243,867.030457 631.102844,861.384460 630.333008,852.730164 
	C629.643066,844.974792 632.709839,838.677002 639.782227,835.633179 
	C644.756653,833.492371 650.248413,832.554565 655.507751,831.074341 
	C658.218750,830.311401 661.293335,830.083313 663.516968,828.590637 
	C665.222534,827.445679 666.788757,824.644714 666.674988,822.681274 
	C666.578186,821.012268 664.259949,818.592041 662.461853,818.055969 
	C655.178711,815.884399 648.737244,818.432190 642.891846,822.804443 
	C641.590820,823.777710 640.395691,824.892578 638.754578,826.277405 
	C636.385864,822.737732 634.201233,819.473022 631.758850,815.823303 
	C641.116760,805.982788 652.580811,803.367065 665.423279,804.970642 
	C672.480652,805.851868 678.060059,808.946777 681.052246,816.218384 
M667.197937,845.287720 
	C667.197937,842.903870 667.197937,840.519958 667.197937,838.183533 
	C661.597717,839.619263 656.599548,840.686157 651.744202,842.208435 
	C647.305115,843.600342 645.527283,847.062744 646.247681,851.562988 
	C646.956665,855.992065 649.912292,857.979431 654.288208,858.176514 
	C661.836731,858.516357 666.072571,854.592590 667.197937,845.287720 
z"/>
<path fill="#2D4467" opacity="1.000000" stroke="none"
	d="
M762.300781,842.583984 
	C763.411743,849.329163 766.028503,854.469055 772.899963,856.026794 
	C780.945129,857.850647 787.832275,856.305847 792.485413,848.029968 
	C796.383972,850.511353 799.959351,852.787048 803.747620,855.198242 
	C799.781433,863.611328 793.327332,868.204956 784.608704,869.750061 
	C770.156128,872.311523 756.648315,867.009521 750.465149,856.447205 
	C743.338074,844.272400 744.641724,824.757751 753.270813,814.449463 
	C762.440857,803.494751 783.321350,801.032654 794.817810,809.550476 
	C802.201538,815.020996 807.134216,830.547852 803.920044,839.080994 
	C803.550903,840.061035 801.368713,840.869751 800.015991,840.887207 
	C788.851990,841.030945 777.684998,840.926270 766.520020,841.022583 
	C765.094543,841.034912 763.675293,841.770264 762.300781,842.583984 
M786.541748,821.111328 
	C782.029297,816.741272 776.031006,815.588257 770.532043,818.033813 
	C765.820984,820.128906 763.066162,824.847351 763.331848,830.744507 
	C770.622620,830.744507 777.933899,830.755432 785.245056,830.733032 
	C786.387634,830.729492 787.529663,830.573853 789.602356,830.418945 
	C788.644836,827.283691 787.800842,824.519775 786.541748,821.111328 
z"/>
<path fill="#304669" opacity="1.000000" stroke="none"
	d="
M701.264648,843.999878 
	C701.264648,831.059692 701.264648,818.619568 701.264648,805.954468 
	C706.630676,805.954468 711.413452,805.954468 716.746765,805.954468 
	C716.746765,808.847656 716.746765,811.717773 716.746765,814.587830 
	C717.078064,814.703796 717.409363,814.819763 717.740662,814.935669 
	C718.614868,813.684265 719.456604,812.408691 720.368835,811.185669 
	C724.376831,805.811768 732.565796,803.375671 738.734192,805.954346 
	C739.734070,806.372437 740.961487,808.073425 740.841309,809.024292 
	C740.347229,812.932312 739.373352,816.779541 738.584045,820.610107 
	C722.606628,818.634644 717.466858,823.155823 717.258789,839.212952 
	C717.132019,848.989014 717.235413,858.768005 717.235413,868.776245 
	C711.848938,868.776245 706.907288,868.776245 701.264648,868.776245 
	C701.264648,860.693115 701.264648,852.596497 701.264648,843.999878 
z"/>
<path fill="#FEFFFF" opacity="1.000000" stroke="none"
	d="
M697.491089,500.554199 
	C678.883118,489.364014 667.347717,472.991119 660.885010,453.093872 
	C650.280457,420.444794 650.333557,387.797424 664.223267,356.074554 
	C675.031555,331.389404 693.248901,314.457581 720.200867,308.533234 
	C753.720825,301.165253 785.848816,313.888763 804.168396,344.334625 
	C815.004028,362.342590 819.266113,382.085205 820.369995,402.843872 
	C821.561523,425.251892 817.880432,446.605042 808.001160,466.779999 
	C784.692627,514.379639 731.822876,520.858887 697.491089,500.554199 
z"/>
<path fill="#F8F9FA" opacity="1.000000" stroke="none"
	d="
M592.653809,798.144897 
	C602.532043,799.147522 606.088928,802.282166 606.736450,810.166565 
	C607.424805,818.547729 603.409973,823.567322 595.055298,824.324768 
	C590.930298,824.698730 586.756592,824.553223 582.604492,824.597168 
	C581.640808,824.607361 580.675049,824.431641 579.447998,824.316956 
	C579.447998,815.685730 579.447998,807.290039 579.447998,798.133057 
	C583.710510,798.133057 587.954590,798.133057 592.653809,798.144897 
z"/>
<path fill="#F5F6F8" opacity="1.000000" stroke="none"
	d="
M414.140869,817.339600 
	C420.475494,819.618469 422.247284,824.207397 422.068176,830.395264 
	C413.366547,830.395264 404.842743,830.395264 396.307098,830.395264 
	C396.884369,820.407959 402.526764,816.186340 414.140869,817.339600 
z"/>
<path fill="#FAFBFC" opacity="1.000000" stroke="none"
	d="
M667.170898,845.728821 
	C666.072571,854.592590 661.836731,858.516357 654.288208,858.176514 
	C649.912292,857.979431 646.956665,855.992065 646.247681,851.562988 
	C645.527283,847.062744 647.305115,843.600342 651.744202,842.208435 
	C656.599548,840.686157 661.597717,839.619263 667.197937,838.183533 
	C667.197937,840.519958 667.197937,842.903870 667.170898,845.728821 
z"/>
<path fill="#F6F7F8" opacity="1.000000" stroke="none"
	d="
M786.749268,821.433594 
	C787.800842,824.519775 788.644836,827.283691 789.602356,830.418945 
	C787.529663,830.573853 786.387634,830.729492 785.245056,830.733032 
	C777.933899,830.755432 770.622620,830.744507 763.331848,830.744507 
	C763.066162,824.847351 765.820984,820.128906 770.532043,818.033813 
	C776.031006,815.588257 782.029297,816.741272 786.749268,821.433594 
z"/>
</svg>