<svg version="1.1" id="Layer_1" xmlns="http://www.w3.org/2000/svg" xmlns:xlink="http://www.w3.org/1999/xlink" x="0px" y="0px"
	 width="100%" viewBox="0 0 1024 1024" enable-background="new 0 0 1024 1024" xml:space="preserve">
<path fill="transparent" opacity="1.000000" stroke="none"
	d="
M1025.000000,235.000000 
	C1025.000000,498.666656 1025.000000,761.833313 1025.000000,1025.000000 
	C683.666687,1025.000000 342.333344,1025.000000 1.000000,1025.000000 
	C1.000000,683.666687 1.000000,342.333344 1.000000,1.000000 
	C342.333344,1.000000 683.666687,1.000000 1025.000000,1.000000 
	C1025.000000,78.833336 1025.000000,156.666672 1025.000000,235.000000 
M1002.002991,707.500000 
	C1002.002991,498.679443 1002.012878,289.858887 1001.979980,81.038338 
	C1001.977905,67.693718 996.699097,56.077717 988.419617,46.067066 
	C976.236206,31.336311 959.752136,25.058186 941.019043,25.052698 
	C664.535522,24.971712 388.052002,24.984968 111.568489,25.039171 
	C100.152809,25.041409 88.726524,25.456913 77.324333,26.048885 
	C63.040852,26.790449 51.077217,33.299625 41.454723,43.293713 
	C30.116478,55.069817 25.024803,69.851860 25.022741,86.177971 
	C24.986889,369.994385 24.996065,653.810791 25.000418,937.627197 
	C25.000568,947.438293 26.365131,956.948853 29.913160,966.231873 
	C37.545147,986.199951 59.115566,1001.888306 80.146423,1001.899475 
	C368.962463,1002.052917 657.778625,1002.012085 946.594727,1001.918884 
	C951.072571,1001.917419 955.703979,1001.172424 960.002319,999.894897 
	C985.688965,992.260620 1002.213989,969.200867 1002.110413,942.485596 
	C1001.808044,864.491394 1002.002991,786.495361 1002.002991,707.500000 
z"/>
<path fill="#FDFDFE" opacity="1.000000" stroke="none"
	d="
M1002.002991,708.000000 
	C1002.002991,786.495361 1001.808044,864.491394 1002.110413,942.485596 
	C1002.213989,969.200867 985.688965,992.260620 960.002319,999.894897 
	C955.703979,1001.172424 951.072571,1001.917419 946.594727,1001.918884 
	C657.778625,1002.012085 368.962463,1002.052917 80.146423,1001.899475 
	C59.115566,1001.888306 37.545147,986.199951 29.913160,966.231873 
	C26.365131,956.948853 25.000568,947.438293 25.000418,937.627197 
	C24.996065,653.810791 24.986889,369.994385 25.022741,86.177971 
	C25.024803,69.851860 30.116478,55.069817 41.454723,43.293713 
	C51.077217,33.299625 63.040852,26.790449 77.324333,26.048885 
	C88.726524,25.456913 100.152809,25.041409 111.568489,25.039171 
	C388.052002,24.984968 664.535522,24.971712 941.019043,25.052698 
	C959.752136,25.058186 976.236206,31.336311 988.419617,46.067066 
	C996.699097,56.077717 1001.977905,67.693718 1001.979980,81.038338 
	C1002.012878,289.858887 1002.002991,498.679443 1002.002991,708.000000 
M974.072449,964.464539 
	C978.737122,957.605591 980.348389,949.993225 980.346863,941.757568 
	C980.293579,656.458069 980.305786,371.158600 980.296265,85.859131 
	C980.295471,62.300766 965.068665,47.069252 941.567261,47.068821 
	C656.267761,47.063580 370.968262,47.063076 85.668777,47.069904 
	C62.582859,47.070457 47.070881,62.558792 47.070293,85.615715 
	C47.062988,371.081848 47.062588,656.547974 47.071323,942.014099 
	C47.072021,964.843445 62.472755,980.290833 85.305542,980.291992 
	C370.938324,980.306458 656.571106,980.285339 942.203857,980.349121 
	C955.336792,980.352051 965.781189,975.509766 974.072449,964.464539 
z"/>
<path fill="#2A4165" opacity="1.000000" stroke="none"
	d="
M973.878906,964.772217 
	C965.781189,975.509766 955.336792,980.352051 942.203857,980.349121 
	C656.571106,980.285339 370.938324,980.306458 85.305542,980.291992 
	C62.472755,980.290833 47.072021,964.843445 47.071323,942.014099 
	C47.062588,656.547974 47.062988,371.081848 47.070293,85.615715 
	C47.070881,62.558792 62.582859,47.070457 85.668777,47.069904 
	C370.968262,47.063076 656.267761,47.063580 941.567261,47.068821 
	C965.068665,47.069252 980.295471,62.300766 980.296265,85.859131 
	C980.305786,371.158600 980.293579,656.458069 980.346863,941.757568 
	C980.348389,949.993225 978.737122,957.605591 973.878906,964.772217 
M385.981140,203.448883 
	C414.896942,215.050995 431.937592,236.461853 437.827637,266.656677 
	C468.467407,266.656677 498.681152,266.656677 529.020508,266.656677 
	C524.462769,236.306564 514.048157,208.740814 495.089539,184.803741 
	C470.043182,153.180344 436.706146,134.941376 397.980896,125.953720 
	C367.660278,118.916664 336.962860,118.259109 306.109589,121.946030 
	C276.295258,125.508797 248.235809,134.486298 222.650101,150.189133 
	C179.638489,176.586838 152.987686,215.573029 137.975906,263.052307 
	C125.214798,303.413239 123.036354,344.711792 127.818748,386.553925 
	C131.756348,421.004883 141.340881,453.687042 158.985413,483.684814 
	C184.141373,526.453003 220.510864,555.486328 268.037720,569.678467 
	C308.635834,581.801575 350.082428,583.505615 391.565094,574.842712 
	C460.233734,560.502502 505.675385,520.503296 524.372620,451.964478 
	C526.522583,444.083466 527.749634,435.950714 529.472717,427.604980 
	C498.391632,427.604980 468.418579,427.604980 438.063049,427.604980 
	C437.682922,429.212219 437.278656,430.793823 436.936127,432.388702 
	C429.824768,465.497192 410.911346,488.327179 378.384216,498.984070 
	C360.398651,504.876678 341.835938,506.131500 323.089996,504.094421 
	C282.301758,499.662018 252.077499,479.416534 232.910156,443.052979 
	C220.833344,420.141327 215.427002,395.404694 213.591522,369.763855 
	C211.261902,337.220062 213.514008,305.210052 224.942886,274.306824 
	C234.705750,247.908386 250.117584,225.560349 274.873444,211.501480 
	C310.091888,191.500916 347.280975,190.221710 385.981140,203.448883 
M814.797791,566.311768 
	C833.376038,557.605164 848.960449,545.066467 861.795654,529.143982 
	C880.737671,505.645996 891.544739,478.526245 896.416321,448.979736 
	C903.331543,407.038940 900.788025,365.738617 883.854919,326.460205 
	C860.033630,271.203979 818.335510,240.663818 757.146545,239.023849 
	C721.425476,238.066452 691.632446,250.222839 669.479736,279.054108 
	C667.840027,281.188141 666.130554,283.268585 663.674805,286.351471 
	C663.674805,272.011078 663.674805,259.055206 663.674805,245.888092 
	C637.331055,245.888092 611.313904,245.888092 585.299072,245.888092 
	C585.299072,393.753510 585.299072,541.196045 585.299072,688.902893 
	C611.424866,688.902893 637.328796,688.902893 663.883789,688.902893 
	C663.883789,636.561584 663.883789,584.418518 663.883789,531.046021 
	C665.705200,533.418762 666.705627,534.689575 667.672119,535.985718 
	C686.507874,561.246826 711.066528,576.027710 742.981445,578.328430 
	C767.729675,580.112427 791.409668,576.616516 814.797791,566.311768 
M489.458923,867.039001 
	C490.192139,867.694214 490.903717,868.885925 491.662079,868.916382 
	C496.121368,869.095947 500.591492,869.004639 505.581268,869.004639 
	C505.581268,858.002441 505.431854,847.375671 505.658936,836.756836 
	C505.743134,832.819092 506.162445,828.715942 507.405365,825.016357 
	C509.215485,819.628479 515.037231,817.017517 520.887024,818.129700 
	C525.477356,819.002502 527.383118,821.768005 527.657532,828.289856 
	C527.797485,831.616211 527.705933,834.952576 527.707092,838.284424 
	C527.710693,848.424377 527.708435,858.564392 527.708435,868.723694 
	C533.220581,868.723694 538.307556,868.723694 543.798462,868.723694 
	C543.798462,859.979187 543.901672,851.516357 543.768677,843.057312 
	C543.643127,835.076660 543.674988,827.058899 542.875793,819.134338 
	C542.237305,812.802673 538.661804,808.041626 532.352295,805.760681 
	C522.206909,802.093079 512.185242,805.106689 505.907227,813.831604 
	C505.447296,814.470764 505.355133,815.374573 505.091949,816.155334 
	C500.552856,807.504211 494.233887,804.579529 486.320526,804.375244 
	C478.359680,804.169739 471.908142,807.194763 466.970703,813.621765 
	C466.839325,811.053772 466.707947,808.485840 466.583313,806.049500 
	C461.182739,806.049500 456.301178,806.049500 451.544189,806.049500 
	C451.544189,827.229065 451.544189,847.979797 451.544189,868.679199 
	C456.935516,868.679199 461.991302,868.679199 467.312439,868.679199 
	C467.312439,859.532043 467.240967,850.715576 467.342255,841.901062 
	C467.393829,837.414062 467.395935,832.876587 468.059753,828.457947 
	C469.134064,821.306885 474.498810,817.386780 481.527649,818.028015 
	C487.295593,818.554199 489.368591,821.470642 489.420349,829.630005 
	C489.497498,841.791382 489.442719,853.953552 489.458923,867.039001 
M224.202316,837.119324 
	C230.165359,864.019043 252.198029,876.823792 277.396118,868.033875 
	C287.490479,864.512573 295.345703,855.199951 295.887939,845.881653 
	C291.785187,843.779236 287.602966,841.636108 283.427887,839.496643 
	C282.756073,840.767761 282.466125,841.184631 282.302094,841.646179 
	C278.705444,851.765930 272.424774,856.170898 262.049103,855.832397 
	C252.034332,855.505676 244.344849,850.278748 242.611938,840.405212 
	C241.201935,832.371460 241.164764,823.837036 242.121704,815.713440 
	C243.314117,805.590759 249.490891,800.140991 258.906738,798.570007 
	C267.160126,797.192993 277.404510,799.464966 281.392303,809.223511 
	C281.607971,809.751282 282.290802,810.088196 283.006073,810.742554 
	C287.164368,808.202209 291.225128,805.721436 295.507446,803.105347 
	C291.236237,791.712158 282.702667,786.647217 271.759521,784.534424 
	C247.591949,779.868530 228.286270,792.581116 224.464188,816.338318 
	C223.420090,822.828308 224.175171,829.607666 224.202316,837.119324 
M308.221008,806.500000 
	C308.221008,827.259949 308.221008,848.019958 308.221008,868.862671 
	C313.893250,868.862671 318.869629,868.862671 324.309021,868.862671 
	C324.309021,858.421997 324.170502,848.118652 324.381561,837.822449 
	C324.459045,834.042725 324.853577,830.115784 326.003174,826.545593 
	C328.051117,820.185364 334.436401,816.939636 341.197021,818.132629 
	C346.718872,819.106995 349.095825,822.504089 349.174774,830.090515 
	C349.282257,840.420410 349.214233,850.752136 349.220734,861.083069 
	C349.222351,863.662537 349.221008,866.242065 349.221008,868.764343 
	C354.954803,868.764343 359.901794,868.764343 364.880432,868.764343 
	C364.880432,852.903564 365.265747,837.273804 364.707672,821.677856 
	C364.452698,814.552185 360.696808,808.698181 353.450195,805.935791 
	C344.125549,802.381226 333.745605,804.815063 326.975677,812.144775 
	C326.388855,812.780151 325.638367,813.264404 324.140686,814.495544 
	C324.140686,802.462402 324.140686,791.397827 324.140686,780.385559 
	C318.623993,780.385559 313.685211,780.385559 308.221069,780.385559 
	C308.221069,788.927551 308.221069,797.213745 308.221008,806.500000 
M562.662354,825.499939 
	C562.662354,839.896790 562.662354,854.293579 562.662354,868.682312 
	C568.551453,868.682312 573.787231,868.682312 579.452271,868.682312 
	C579.452271,858.283936 579.452271,848.202637 579.452271,838.262634 
	C587.519653,837.828125 595.219604,837.970276 602.742249,836.884216 
	C615.623108,835.024536 623.380920,825.141968 623.497742,811.605164 
	C623.612549,798.296753 616.282959,787.551025 603.618347,786.260010 
	C590.195923,784.891724 576.525940,785.952698 562.662231,785.952698 
	C562.662231,798.577698 562.662231,811.538818 562.662354,825.499939 
M380.735229,825.349792 
	C380.352570,827.134705 379.894714,828.907288 379.598602,830.706482 
	C375.390350,856.273743 391.599976,873.229736 417.155487,869.856750 
	C426.311890,868.648193 432.961945,863.812927 437.084015,855.153137 
	C433.125519,852.686951 429.524048,850.443176 425.989685,848.241211 
	C419.576660,856.067200 412.470947,858.425598 404.688507,855.628967 
	C399.017731,853.591248 396.052582,848.782532 395.931702,840.989868 
	C409.518646,840.989868 423.108337,840.989868 438.195435,840.989868 
	C437.471222,834.074097 437.222473,827.679199 436.032013,821.464661 
	C434.850708,815.297791 430.874084,810.773804 425.293823,807.791138 
	C408.432251,798.778259 387.598236,806.668945 380.735229,825.349792 
M646.511841,832.952698 
	C644.477905,833.673706 642.369629,834.235413 640.423035,835.143799 
	C632.540039,838.822510 629.078369,845.624390 630.492493,854.388733 
	C631.954773,863.451233 637.459290,868.987061 646.163757,869.949646 
	C655.145386,870.942749 663.089600,869.258606 667.970703,859.990601 
	C669.138123,862.016663 669.782166,863.330566 670.602417,864.523254 
	C673.676880,868.993469 682.132935,871.183472 688.391907,868.630432 
	C693.752930,866.443726 689.462036,862.023132 690.050659,858.691040 
	C690.176392,857.979431 689.793274,857.178040 689.656982,856.481689 
	C683.074829,856.678772 682.744873,856.299744 682.652344,849.757751 
	C682.513428,839.936890 682.557800,830.103699 682.036560,820.301697 
	C681.737183,814.673218 678.665527,810.262451 673.645020,807.466736 
	C661.622314,800.771790 640.914185,804.985840 631.911682,816.145142 
	C634.139465,819.416260 636.421021,822.766296 638.884827,826.383972 
	C644.752136,820.652527 650.991516,817.038940 658.827148,817.396118 
	C662.575317,817.566956 666.445557,818.122437 666.926025,823.001892 
	C667.377686,827.588135 663.927795,828.976746 660.455750,829.892639 
	C656.119812,831.036499 651.693420,831.837036 646.511841,832.952698 
M795.661194,865.247437 
	C798.510010,862.178284 801.358826,859.109192 804.554626,855.666199 
	C799.972839,852.738831 796.388428,850.448669 792.875488,848.204163 
	C785.965515,856.216858 778.814331,858.499756 771.091736,855.467834 
	C765.510986,853.276855 762.684326,848.463013 762.744263,840.820068 
	C776.344727,840.820068 789.952576,840.820068 803.917725,840.820068 
	C804.739746,833.097595 805.055481,825.748291 801.900696,818.923889 
	C800.348389,815.565979 797.976807,812.195129 795.117737,809.898560 
	C780.082397,797.820862 754.344116,805.220886 748.211487,823.481506 
	C746.558228,828.404419 746.041138,833.934387 746.108398,839.171509 
	C746.442932,865.214355 772.547607,879.250610 795.661194,865.247437 
M728.103149,820.011169 
	C731.517029,820.160400 734.930908,820.309631 738.709595,820.474792 
	C739.568909,816.029236 740.438477,811.530945 741.384399,806.637329 
	C730.933228,803.149719 722.915588,805.212708 716.764771,814.573242 
	C716.764771,811.697449 716.764771,808.821716 716.764771,805.944885 
	C711.351135,805.944885 706.428223,805.944885 701.604370,805.944885 
	C701.604370,827.113403 701.604370,847.959534 701.604370,868.851807 
	C706.955627,868.851807 711.919495,868.851807 717.309937,868.851807 
	C717.309937,866.558289 717.275818,864.420898 717.315796,862.284790 
	C717.502136,852.318726 717.453003,842.338867 718.005798,832.392700 
	C718.330688,826.547424 721.180969,821.947388 728.103149,820.011169 
z"/>
<path fill="#FEFEFE" opacity="1.000000" stroke="none"
	d="
M385.627930,203.288940 
	C347.280975,190.221710 310.091888,191.500916 274.873444,211.501480 
	C250.117584,225.560349 234.705750,247.908386 224.942886,274.306824 
	C213.514008,305.210052 211.261902,337.220062 213.591522,369.763855 
	C215.427002,395.404694 220.833344,420.141327 232.910156,443.052979 
	C252.077499,479.416534 282.301758,499.662018 323.089996,504.094421 
	C341.835938,506.131500 360.398651,504.876678 378.384216,498.984070 
	C410.911346,488.327179 429.824768,465.497192 436.936127,432.388702 
	C437.278656,430.793823 437.682922,429.212219 438.063049,427.604980 
	C468.418579,427.604980 498.391632,427.604980 529.472717,427.604980 
	C527.749634,435.950714 526.522583,444.083466 524.372620,451.964478 
	C505.675385,520.503296 460.233734,560.502502 391.565094,574.842712 
	C350.082428,583.505615 308.635834,581.801575 268.037720,569.678467 
	C220.510864,555.486328 184.141373,526.453003 158.985413,483.684814 
	C141.340881,453.687042 131.756348,421.004883 127.818748,386.553925 
	C123.036354,344.711792 125.214798,303.413239 137.975906,263.052307 
	C152.987686,215.573029 179.638489,176.586838 222.650101,150.189133 
	C248.235809,134.486298 276.295258,125.508797 306.109589,121.946030 
	C336.962860,118.259109 367.660278,118.916664 397.980896,125.953720 
	C436.706146,134.941376 470.043182,153.180344 495.089539,184.803741 
	C514.048157,208.740814 524.462769,236.306564 529.020508,266.656677 
	C498.681152,266.656677 468.467407,266.656677 437.827637,266.656677 
	C431.937592,236.461853 414.896942,215.050995 385.627930,203.288940 
z"/>
<path fill="#FEFEFE" opacity="1.000000" stroke="none"
	d="
M814.470764,566.505249 
	C791.409668,576.616516 767.729675,580.112427 742.981445,578.328430 
	C711.066528,576.027710 686.507874,561.246826 667.672119,535.985718 
	C666.705627,534.689575 665.705200,533.418762 663.883789,531.046021 
	C663.883789,584.418518 663.883789,636.561584 663.883789,688.902893 
	C637.328796,688.902893 611.424866,688.902893 585.299072,688.902893 
	C585.299072,541.196045 585.299072,393.753510 585.299072,245.888092 
	C611.313904,245.888092 637.331055,245.888092 663.674805,245.888092 
	C663.674805,259.055206 663.674805,272.011078 663.674805,286.351471 
	C666.130554,283.268585 667.840027,281.188141 669.479736,279.054108 
	C691.632446,250.222839 721.425476,238.066452 757.146545,239.023849 
	C818.335510,240.663818 860.033630,271.203979 883.854919,326.460205 
	C900.788025,365.738617 903.331543,407.038940 896.416321,448.979736 
	C891.544739,478.526245 880.737671,505.645996 861.795654,529.143982 
	C848.960449,545.066467 833.376038,557.605164 814.470764,566.505249 
M681.516785,330.024384 
	C677.583496,335.171326 672.886536,339.904694 669.839233,345.531433 
	C647.866943,386.102356 647.652466,427.610291 667.778259,468.545807 
	C683.625183,500.778351 716.625854,516.214355 751.493469,510.154358 
	C777.983093,505.550507 796.305847,490.094025 808.076599,466.500336 
	C821.129578,440.336548 823.035583,412.614929 818.450989,384.190186 
	C815.205933,364.070618 807.710449,345.798950 793.854126,330.531189 
	C764.661560,298.364807 711.996704,298.870911 681.516785,330.024384 
z"/>
<path fill="#F9FAFB" opacity="1.000000" stroke="none"
	d="
M489.451477,866.577209 
	C489.442719,853.953552 489.497498,841.791382 489.420349,829.630005 
	C489.368591,821.470642 487.295593,818.554199 481.527649,818.028015 
	C474.498810,817.386780 469.134064,821.306885 468.059753,828.457947 
	C467.395935,832.876587 467.393829,837.414062 467.342255,841.901062 
	C467.240967,850.715576 467.312439,859.532043 467.312439,868.679199 
	C461.991302,868.679199 456.935516,868.679199 451.544189,868.679199 
	C451.544189,847.979797 451.544189,827.229065 451.544189,806.049500 
	C456.301178,806.049500 461.182739,806.049500 466.583313,806.049500 
	C466.707947,808.485840 466.839325,811.053772 466.970703,813.621765 
	C471.908142,807.194763 478.359680,804.169739 486.320526,804.375244 
	C494.233887,804.579529 500.552856,807.504211 505.091949,816.155334 
	C505.355133,815.374573 505.447296,814.470764 505.907227,813.831604 
	C512.185242,805.106689 522.206909,802.093079 532.352295,805.760681 
	C538.661804,808.041626 542.237305,812.802673 542.875793,819.134338 
	C543.674988,827.058899 543.643127,835.076660 543.768677,843.057312 
	C543.901672,851.516357 543.798462,859.979187 543.798462,868.723694 
	C538.307556,868.723694 533.220581,868.723694 527.708435,868.723694 
	C527.708435,858.564392 527.710693,848.424377 527.707092,838.284424 
	C527.705933,834.952576 527.797485,831.616211 527.657532,828.289856 
	C527.383118,821.768005 525.477356,819.002502 520.887024,818.129700 
	C515.037231,817.017517 509.215485,819.628479 507.405365,825.016357 
	C506.162445,828.715942 505.743134,832.819092 505.658936,836.756836 
	C505.431854,847.375671 505.581268,858.002441 505.581268,869.004639 
	C500.591492,869.004639 496.121368,869.095947 491.662079,868.916382 
	C490.903717,868.885925 490.192139,867.694214 489.451477,866.577209 
z"/>
<path fill="#FCFCFD" opacity="1.000000" stroke="none"
	d="
M224.153442,836.686768 
	C224.175171,829.607666 223.420090,822.828308 224.464188,816.338318 
	C228.286270,792.581116 247.591949,779.868530 271.759521,784.534424 
	C282.702667,786.647217 291.236237,791.712158 295.507446,803.105347 
	C291.225128,805.721436 287.164368,808.202209 283.006073,810.742554 
	C282.290802,810.088196 281.607971,809.751282 281.392303,809.223511 
	C277.404510,799.464966 267.160126,797.192993 258.906738,798.570007 
	C249.490891,800.140991 243.314117,805.590759 242.121704,815.713440 
	C241.164764,823.837036 241.201935,832.371460 242.611938,840.405212 
	C244.344849,850.278748 252.034332,855.505676 262.049103,855.832397 
	C272.424774,856.170898 278.705444,851.765930 282.302094,841.646179 
	C282.466125,841.184631 282.756073,840.767761 283.427887,839.496643 
	C287.602966,841.636108 291.785187,843.779236 295.887939,845.881653 
	C295.345703,855.199951 287.490479,864.512573 277.396118,868.033875 
	C252.198029,876.823792 230.165359,864.019043 224.153442,836.686768 
z"/>
<path fill="#FBFBFC" opacity="1.000000" stroke="none"
	d="
M308.221039,806.000000 
	C308.221069,797.213745 308.221069,788.927551 308.221069,780.385559 
	C313.685211,780.385559 318.623993,780.385559 324.140686,780.385559 
	C324.140686,791.397827 324.140686,802.462402 324.140686,814.495544 
	C325.638367,813.264404 326.388855,812.780151 326.975677,812.144775 
	C333.745605,804.815063 344.125549,802.381226 353.450195,805.935791 
	C360.696808,808.698181 364.452698,814.552185 364.707672,821.677856 
	C365.265747,837.273804 364.880432,852.903564 364.880432,868.764343 
	C359.901794,868.764343 354.954803,868.764343 349.221008,868.764343 
	C349.221008,866.242065 349.222351,863.662537 349.220734,861.083069 
	C349.214233,850.752136 349.282257,840.420410 349.174774,830.090515 
	C349.095825,822.504089 346.718872,819.106995 341.197021,818.132629 
	C334.436401,816.939636 328.051117,820.185364 326.003174,826.545593 
	C324.853577,830.115784 324.459045,834.042725 324.381561,837.822449 
	C324.170502,848.118652 324.309021,858.421997 324.309021,868.862671 
	C318.869629,868.862671 313.893250,868.862671 308.221008,868.862671 
	C308.221008,848.019958 308.221008,827.259949 308.221039,806.000000 
z"/>
<path fill="#FDFDFE" opacity="1.000000" stroke="none"
	d="
M562.662292,824.999878 
	C562.662231,811.538818 562.662231,798.577698 562.662231,785.952698 
	C576.525940,785.952698 590.195923,784.891724 603.618347,786.260010 
	C616.282959,787.551025 623.612549,798.296753 623.497742,811.605164 
	C623.380920,825.141968 615.623108,835.024536 602.742249,836.884216 
	C595.219604,837.970276 587.519653,837.828125 579.452271,838.262634 
	C579.452271,848.202637 579.452271,858.283936 579.452271,868.682312 
	C573.787231,868.682312 568.551453,868.682312 562.662354,868.682312 
	C562.662354,854.293579 562.662354,839.896790 562.662292,824.999878 
M590.264038,824.557983 
	C592.752869,824.371033 595.286987,824.419128 597.721375,823.949768 
	C603.311157,822.872009 606.311157,818.857666 606.713867,812.359192 
	C607.120667,805.795654 604.423950,800.261047 599.073608,799.310486 
	C592.667725,798.172424 586.038879,798.289185 579.561035,797.866028 
	C579.561035,807.382080 579.561035,815.782410 579.561035,824.557922 
	C583.054626,824.557922 586.195251,824.557922 590.264038,824.557983 
z"/>
<path fill="#FBFCFC" opacity="1.000000" stroke="none"
	d="
M380.843719,824.963013 
	C387.598236,806.668945 408.432251,798.778259 425.293823,807.791138 
	C430.874084,810.773804 434.850708,815.297791 436.032013,821.464661 
	C437.222473,827.679199 437.471222,834.074097 438.195435,840.989868 
	C423.108337,840.989868 409.518646,840.989868 395.931702,840.989868 
	C396.052582,848.782532 399.017731,853.591248 404.688507,855.628967 
	C412.470947,858.425598 419.576660,856.067200 425.989685,848.241211 
	C429.524048,850.443176 433.125519,852.686951 437.084015,855.153137 
	C432.961945,863.812927 426.311890,868.648193 417.155487,869.856750 
	C391.599976,873.229736 375.390350,856.273743 379.598602,830.706482 
	C379.894714,828.907288 380.352570,827.134705 380.843719,824.963013 
M419.138824,820.393616 
	C414.396088,815.932983 408.877289,815.882874 403.411713,818.320312 
	C398.445190,820.535156 396.529724,825.050720 396.105194,830.286499 
	C404.917480,830.286499 413.424377,830.286499 422.976685,830.286499 
	C421.702545,826.728699 420.673340,823.854797 419.138824,820.393616 
z"/>
<path fill="#FAFBFB" opacity="1.000000" stroke="none"
	d="
M646.908936,832.869263 
	C651.693420,831.837036 656.119812,831.036499 660.455750,829.892639 
	C663.927795,828.976746 667.377686,827.588135 666.926025,823.001892 
	C666.445557,818.122437 662.575317,817.566956 658.827148,817.396118 
	C650.991516,817.038940 644.752136,820.652527 638.884827,826.383972 
	C636.421021,822.766296 634.139465,819.416260 631.911682,816.145142 
	C640.914185,804.985840 661.622314,800.771790 673.645020,807.466736 
	C678.665527,810.262451 681.737183,814.673218 682.036560,820.301697 
	C682.557800,830.103699 682.513428,839.936890 682.652344,849.757751 
	C682.744873,856.299744 683.074829,856.678772 689.656982,856.481689 
	C689.793274,857.178040 690.176392,857.979431 690.050659,858.691040 
	C689.462036,862.023132 693.752930,866.443726 688.391907,868.630432 
	C682.132935,871.183472 673.676880,868.993469 670.602417,864.523254 
	C669.782166,863.330566 669.138123,862.016663 667.970703,859.990601 
	C663.089600,869.258606 655.145386,870.942749 646.163757,869.949646 
	C637.459290,868.987061 631.954773,863.451233 630.492493,854.388733 
	C629.078369,845.624390 632.540039,838.822510 640.423035,835.143799 
	C642.369629,834.235413 644.477905,833.673706 646.908936,832.869263 
M651.170654,842.415527 
	C647.282593,844.090576 645.249573,847.365906 646.407471,851.154236 
	C647.195557,853.732605 649.648987,856.802551 652.074646,857.687256 
	C658.661011,860.089600 665.447937,855.862854 666.708313,848.916809 
	C667.335327,845.461243 666.817383,841.797974 666.817383,838.341675 
	C661.759705,839.619690 656.829956,840.865356 651.170654,842.415527 
z"/>
<path fill="#FCFCFC" opacity="1.000000" stroke="none"
	d="
M795.376770,865.476318 
	C772.547607,879.250610 746.442932,865.214355 746.108398,839.171509 
	C746.041138,833.934387 746.558228,828.404419 748.211487,823.481506 
	C754.344116,805.220886 780.082397,797.820862 795.117737,809.898560 
	C797.976807,812.195129 800.348389,815.565979 801.900696,818.923889 
	C805.055481,825.748291 804.739746,833.097595 803.917725,840.820068 
	C789.952576,840.820068 776.344727,840.820068 762.744263,840.820068 
	C762.684326,848.463013 765.510986,853.276855 771.091736,855.467834 
	C778.814331,858.499756 785.965515,856.216858 792.875488,848.204163 
	C796.388428,850.448669 799.972839,852.738831 804.554626,855.666199 
	C801.358826,859.109192 798.510010,862.178284 795.376770,865.476318 
M763.571472,826.388245 
	C763.355530,827.710571 763.139587,829.032837 762.921143,830.370361 
	C772.002197,830.370361 780.379944,830.370361 788.744507,830.370361 
	C788.823853,821.819641 785.100403,817.338318 777.863770,816.943115 
	C770.803040,816.557556 767.077454,818.869873 763.571472,826.388245 
z"/>
<path fill="#FAFAFB" opacity="1.000000" stroke="none"
	d="
M727.690735,820.075928 
	C721.180969,821.947388 718.330688,826.547424 718.005798,832.392700 
	C717.453003,842.338867 717.502136,852.318726 717.315796,862.284790 
	C717.275818,864.420898 717.309937,866.558289 717.309937,868.851807 
	C711.919495,868.851807 706.955627,868.851807 701.604370,868.851807 
	C701.604370,847.959534 701.604370,827.113403 701.604370,805.944885 
	C706.428223,805.944885 711.351135,805.944885 716.764771,805.944885 
	C716.764771,808.821716 716.764771,811.697449 716.764771,814.573242 
	C722.915588,805.212708 730.933228,803.149719 741.384399,806.637329 
	C740.438477,811.530945 739.568909,816.029236 738.709595,820.474792 
	C734.930908,820.309631 731.517029,820.160400 727.690735,820.075928 
z"/>
<path fill="#2B4165" opacity="1.000000" stroke="none"
	d="
M681.758911,329.762207 
	C711.996704,298.870911 764.661560,298.364807 793.854126,330.531189 
	C807.710449,345.798950 815.205933,364.070618 818.450989,384.190186 
	C823.035583,412.614929 821.129578,440.336548 808.076599,466.500336 
	C796.305847,490.094025 777.983093,505.550507 751.493469,510.154358 
	C716.625854,516.214355 683.625183,500.778351 667.778259,468.545807 
	C647.652466,427.610291 647.866943,386.102356 669.839233,345.531433 
	C672.886536,339.904694 677.583496,335.171326 681.758911,329.762207 
z"/>
<path fill="#32486B" opacity="1.000000" stroke="none"
	d="
M589.799927,824.557983 
	C586.195251,824.557922 583.054626,824.557922 579.561035,824.557922 
	C579.561035,815.782410 579.561035,807.382080 579.561035,797.866028 
	C586.038879,798.289185 592.667725,798.172424 599.073608,799.310486 
	C604.423950,800.261047 607.120667,805.795654 606.713867,812.359192 
	C606.311157,818.857666 603.311157,822.872009 597.721375,823.949768 
	C595.286987,824.419128 592.752869,824.371033 589.799927,824.557983 
z"/>
<path fill="#354B6D" opacity="1.000000" stroke="none"
	d="
M419.391479,820.687256 
	C420.673340,823.854797 421.702545,826.728699 422.976685,830.286499 
	C413.424377,830.286499 404.917480,830.286499 396.105194,830.286499 
	C396.529724,825.050720 398.445190,820.535156 403.411713,818.320312 
	C408.877289,815.882874 414.396088,815.932983 419.391479,820.687256 
z"/>
<path fill="#2F4669" opacity="1.000000" stroke="none"
	d="
M651.535400,842.263306 
	C656.829956,840.865356 661.759705,839.619690 666.817383,838.341675 
	C666.817383,841.797974 667.335327,845.461243 666.708313,848.916809 
	C665.447937,855.862854 658.661011,860.089600 652.074646,857.687256 
	C649.648987,856.802551 647.195557,853.732605 646.407471,851.154236 
	C645.249573,847.365906 647.282593,844.090576 651.535400,842.263306 
z"/>
<path fill="#354B6D" opacity="1.000000" stroke="none"
	d="
M763.708862,826.015747 
	C767.077454,818.869873 770.803040,816.557556 777.863770,816.943115 
	C785.100403,817.338318 788.823853,821.819641 788.744507,830.370361 
	C780.379944,830.370361 772.002197,830.370361 762.921143,830.370361 
	C763.139587,829.032837 763.355530,827.710571 763.708862,826.015747 
z"/>
</svg>