<svg id="svg" version="1.1" xmlns="http://www.w3.org/2000/svg" xmlns:xlink="http://www.w3.org/1999/xlink" width="400" height="400" viewBox="0, 0, 400,400"><g id="svgg"><path id="path0" d="M198.830 57.464 C 198.342 57.806,196.560 58.855,194.871 59.795 C 193.182 60.736,189.010 63.078,185.600 65.001 C 182.190 66.923,178.590 68.944,177.600 69.490 C 176.610 70.037,175.080 70.893,174.200 71.393 C 172.638 72.280,168.804 74.367,166.000 75.857 C 165.230 76.265,164.510 76.700,164.400 76.822 C 164.290 76.945,163.030 77.685,161.600 78.467 C 160.170 79.249,158.190 80.344,157.200 80.900 C 155.282 81.976,142.078 89.280,138.400 91.298 C 137.190 91.963,136.020 92.643,135.800 92.810 C 135.580 92.977,131.890 95.043,127.600 97.400 C 123.310 99.757,119.620 101.823,119.400 101.990 C 119.030 102.271,118.106 102.786,112.000 106.109 C 110.790 106.767,109.620 107.439,109.400 107.602 C 109.180 107.765,107.785 108.552,106.300 109.349 C 97.154 114.263,91.610 117.332,89.641 118.571 C 88.848 119.070,87.030 120.112,85.600 120.887 C 84.170 121.662,82.010 122.847,80.800 123.519 L 78.600 124.742 78.499 199.506 L 78.398 274.269 80.499 275.330 C 82.507 276.344,85.131 277.788,88.600 279.788 C 89.480 280.295,91.100 281.210,92.200 281.821 C 93.300 282.432,94.766 283.249,95.459 283.636 C 96.151 284.023,98.491 285.281,100.659 286.431 C 102.826 287.581,104.780 288.652,105.000 288.811 C 105.220 288.969,106.570 289.727,108.000 290.495 C 109.430 291.263,111.320 292.300,112.200 292.799 C 115.447 294.643,120.352 297.374,126.000 300.486 C 129.190 302.243,133.780 304.807,136.200 306.185 C 138.620 307.563,141.500 309.188,142.600 309.797 C 143.700 310.406,146.220 311.806,148.200 312.909 C 150.180 314.012,152.700 315.404,153.800 316.004 C 157.810 318.188,159.809 319.314,160.200 319.608 C 160.420 319.773,162.220 320.805,164.200 321.901 C 166.180 322.998,168.520 324.303,169.400 324.801 C 170.280 325.300,171.900 326.200,173.000 326.801 C 178.214 329.651,192.645 337.726,193.000 337.993 C 193.220 338.159,194.480 338.884,195.800 339.605 C 197.120 340.326,198.528 341.141,198.928 341.416 C 199.585 341.866,204.072 339.878,206.600 338.017 C 206.820 337.855,208.754 336.792,210.899 335.654 C 215.167 333.390,217.024 332.372,221.706 329.730 C 224.648 328.070,225.822 327.417,230.300 324.955 C 231.345 324.380,232.920 323.504,233.800 323.007 C 242.097 318.321,244.883 316.753,246.600 315.803 C 247.700 315.194,250.130 313.843,252.000 312.800 C 253.870 311.757,256.300 310.406,257.400 309.798 C 258.500 309.190,259.580 308.560,259.800 308.397 C 260.020 308.234,261.370 307.473,262.800 306.704 C 264.230 305.936,266.255 304.833,267.300 304.254 C 268.345 303.674,270.055 302.726,271.100 302.147 C 272.145 301.567,273.990 300.555,275.200 299.899 C 276.410 299.242,279.470 297.528,282.000 296.091 C 284.530 294.654,287.230 293.122,288.000 292.685 C 288.770 292.249,290.390 291.355,291.600 290.699 C 292.810 290.044,294.790 288.963,296.000 288.298 C 298.203 287.088,298.699 286.813,305.400 283.102 C 307.380 282.006,309.180 280.970,309.400 280.800 C 309.620 280.630,311.510 279.544,313.600 278.385 C 315.690 277.227,318.300 275.779,319.400 275.168 L 321.400 274.058 321.400 199.395 L 321.400 124.733 318.000 122.919 C 316.130 121.922,312.837 120.047,310.681 118.753 C 308.526 117.459,306.675 116.400,306.567 116.400 C 306.459 116.400,304.465 115.320,302.135 114.000 C 299.805 112.680,297.828 111.600,297.742 111.600 C 297.655 111.600,296.913 111.177,296.092 110.661 C 295.271 110.144,293.430 109.089,292.000 108.315 C 289.181 106.790,288.499 106.409,281.600 102.493 C 279.070 101.057,276.100 99.393,275.000 98.796 C 273.900 98.198,272.280 97.300,271.400 96.800 C 269.853 95.921,266.982 94.357,262.400 91.896 C 261.190 91.246,260.020 90.578,259.800 90.410 C 259.580 90.243,258.410 89.561,257.200 88.896 C 255.990 88.230,251.220 85.571,246.600 82.987 C 241.980 80.403,237.480 77.896,236.600 77.418 C 231.313 74.541,229.355 73.450,229.000 73.185 C 228.780 73.020,227.610 72.350,226.400 71.696 C 225.190 71.042,223.390 70.058,222.400 69.509 C 221.410 68.960,219.520 67.922,218.200 67.202 C 216.880 66.483,215.620 65.764,215.400 65.605 C 215.022 65.332,212.886 64.157,207.400 61.206 C 206.080 60.496,204.820 59.778,204.600 59.610 C 202.256 57.826,199.680 56.868,198.830 57.464 M202.000 77.000 C 202.871 77.550,203.672 78.000,203.779 78.000 C 203.886 78.000,206.364 79.327,209.287 80.948 C 212.209 82.570,215.500 84.395,216.600 85.004 C 217.700 85.613,219.410 86.561,220.400 87.111 C 221.390 87.661,224.720 89.501,227.800 91.200 C 236.664 96.090,237.377 96.490,237.800 96.803 C 238.020 96.966,239.370 97.727,240.800 98.496 C 242.230 99.264,244.210 100.342,245.200 100.891 C 246.190 101.440,248.080 102.483,249.400 103.208 C 250.720 103.933,252.471 104.948,253.292 105.463 C 254.113 105.978,254.872 106.400,254.980 106.400 C 255.087 106.400,256.666 107.273,258.488 108.340 C 261.763 110.258,270.541 115.180,274.800 117.487 C 276.010 118.142,279.400 120.056,282.334 121.739 C 285.267 123.423,287.734 124.800,287.816 124.800 C 287.898 124.800,288.837 125.314,289.903 125.943 C 292.298 127.355,295.015 128.882,298.360 130.695 C 299.768 131.459,301.478 132.427,302.160 132.847 C 302.842 133.267,303.717 133.720,304.104 133.853 C 305.241 134.244,305.224 133.094,305.109 200.160 L 305.000 264.520 302.800 265.714 C 296.790 268.975,295.512 269.681,291.849 271.759 C 289.676 272.991,287.845 274.000,287.782 274.000 C 287.718 274.000,286.296 274.810,284.622 275.800 C 282.947 276.790,281.489 277.600,281.381 277.600 C 281.272 277.600,280.513 278.022,279.692 278.537 C 278.871 279.052,277.120 280.067,275.800 280.792 C 272.620 282.539,270.492 283.718,266.400 286.000 C 264.530 287.043,262.100 288.394,261.000 289.002 C 259.900 289.610,257.110 291.190,254.800 292.513 C 252.490 293.835,249.430 295.543,248.000 296.307 C 242.587 299.200,240.153 300.550,238.708 301.460 C 237.887 301.977,237.126 302.400,237.015 302.400 C 236.905 302.400,234.456 303.750,231.574 305.400 C 228.691 307.050,226.254 308.400,226.158 308.400 C 226.063 308.400,225.266 308.854,224.388 309.408 C 223.510 309.962,221.578 311.070,220.096 311.871 C 218.613 312.671,216.770 313.682,216.000 314.118 C 215.230 314.553,213.430 315.542,212.000 316.315 C 210.570 317.089,208.729 318.144,207.908 318.661 C 207.087 319.177,206.328 319.600,206.219 319.600 C 206.111 319.600,204.653 320.410,202.978 321.400 C 199.366 323.535,199.730 323.493,197.771 322.011 C 196.907 321.357,196.061 320.817,195.892 320.811 C 195.723 320.805,194.913 320.377,194.092 319.861 C 193.271 319.344,191.430 318.288,190.000 317.514 C 185.750 315.215,183.425 313.912,183.000 313.592 C 182.553 313.256,176.387 309.815,172.400 307.676 C 170.970 306.909,168.755 305.678,167.479 304.941 C 166.202 304.203,165.080 303.600,164.986 303.600 C 164.891 303.600,163.686 302.910,162.307 302.067 C 159.289 300.222,158.036 299.515,148.000 294.001 C 143.710 291.644,138.490 288.728,136.400 287.523 C 134.310 286.317,131.070 284.517,129.200 283.523 C 127.330 282.529,125.080 281.305,124.200 280.803 C 123.320 280.302,121.444 279.265,120.032 278.499 C 118.619 277.734,116.360 276.432,115.011 275.607 C 111.633 273.539,106.433 270.602,102.606 268.601 C 97.176 265.761,95.419 264.734,94.925 264.113 C 94.562 263.656,94.468 248.322,94.525 199.097 L 94.600 134.678 96.600 133.541 C 97.700 132.915,99.050 132.181,99.600 131.910 C 100.150 131.638,100.690 131.323,100.800 131.208 C 100.910 131.094,102.102 130.434,103.448 129.742 C 106.175 128.341,108.490 127.065,112.500 124.755 C 122.229 119.151,121.946 119.310,127.000 116.599 C 130.752 114.587,140.705 108.920,141.400 108.400 C 141.620 108.236,143.015 107.448,144.500 106.651 C 145.985 105.853,148.415 104.547,149.900 103.748 C 151.385 102.950,153.645 101.690,154.921 100.948 C 156.198 100.207,157.320 99.600,157.414 99.600 C 157.509 99.600,158.762 98.880,160.200 98.000 C 161.638 97.120,162.904 96.400,163.015 96.400 C 163.125 96.400,163.906 95.965,164.749 95.432 C 166.397 94.392,171.214 91.707,177.000 88.605 C 178.980 87.543,181.271 86.252,182.092 85.737 C 182.913 85.222,183.675 84.800,183.785 84.800 C 183.896 84.800,185.125 84.103,186.517 83.251 C 187.909 82.399,190.837 80.768,193.024 79.628 C 195.211 78.487,197.540 77.217,198.200 76.806 C 199.798 75.811,200.144 75.828,202.000 77.000 M184.989 91.337 C 184.555 91.632,182.940 92.559,181.400 93.397 C 179.860 94.235,177.929 95.343,177.108 95.860 C 176.287 96.377,175.525 96.800,175.415 96.800 C 175.304 96.800,174.086 97.485,172.707 98.322 C 171.328 99.159,168.850 100.536,167.200 101.382 C 165.550 102.228,163.529 103.344,162.708 103.860 C 161.887 104.377,161.119 104.800,161.001 104.800 C 160.883 104.800,159.452 105.610,157.821 106.600 C 156.190 107.590,154.779 108.400,154.685 108.400 C 154.592 108.400,152.914 109.322,150.957 110.449 C 149.001 111.576,145.870 113.305,144.000 114.291 C 142.130 115.278,139.430 116.759,138.000 117.583 C 136.570 118.407,134.140 119.807,132.600 120.695 C 128.694 122.946,126.996 123.896,124.000 125.505 C 122.570 126.273,121.220 127.035,121.000 127.198 C 120.498 127.569,117.088 129.435,113.300 131.410 C 111.705 132.242,110.400 133.068,110.400 133.247 C 110.400 133.516,113.774 139.362,114.293 139.992 C 114.380 140.098,115.025 139.851,115.726 139.443 C 116.427 139.035,118.170 138.071,119.600 137.300 C 121.030 136.529,122.380 135.765,122.600 135.602 C 123.004 135.303,126.226 133.504,128.800 132.141 C 129.570 131.734,130.290 131.310,130.400 131.200 C 130.510 131.090,131.230 130.662,132.000 130.249 C 132.770 129.836,135.830 128.149,138.800 126.500 C 141.770 124.850,145.190 122.953,146.400 122.284 C 147.610 121.615,149.728 120.377,151.107 119.533 C 152.486 118.690,153.698 118.000,153.800 118.000 C 153.902 118.000,155.162 117.280,156.600 116.400 C 158.038 115.520,159.299 114.800,159.403 114.800 C 159.643 114.800,165.786 111.413,175.000 106.202 C 178.960 103.963,183.820 101.275,185.800 100.230 C 190.843 97.569,190.686 97.947,188.348 94.100 C 186.189 90.548,186.171 90.533,184.989 91.337 M193.908 133.878 L 193.800 142.156 191.200 142.639 C 170.428 146.498,160.578 156.533,160.613 173.800 C 160.648 191.037,169.219 199.604,193.000 206.174 C 194.100 206.478,196.530 207.207,198.400 207.794 C 200.270 208.382,203.060 209.221,204.600 209.660 C 209.809 211.144,214.677 213.597,217.184 216.000 C 222.927 221.507,221.191 231.690,213.928 235.096 C 207.382 238.165,192.327 238.402,182.200 235.595 C 176.204 233.933,173.327 233.021,171.340 232.151 C 170.646 231.848,169.984 231.600,169.867 231.600 C 169.751 231.600,168.489 231.060,167.063 230.400 C 163.786 228.883,163.683 228.891,163.407 230.700 C 163.281 231.525,162.917 233.640,162.597 235.400 C 161.221 242.988,160.850 245.065,160.679 246.135 C 160.235 248.915,177.011 253.955,190.600 255.125 L 193.800 255.400 193.908 263.668 L 194.016 271.936 200.808 271.980 L 207.600 272.025 207.600 263.636 C 207.600 258.570,207.756 255.151,207.993 255.004 C 208.210 254.870,209.695 254.510,211.293 254.204 C 231.421 250.347,241.252 239.864,241.306 222.200 C 241.355 205.878,233.350 196.515,214.800 191.200 C 213.150 190.727,211.350 190.179,210.800 189.982 C 210.250 189.785,206.920 188.803,203.400 187.798 C 186.657 183.022,182.000 179.582,182.013 172.000 C 182.035 158.851,201.394 155.105,226.251 163.440 C 232.451 165.519,232.255 165.498,232.509 164.100 C 232.619 163.495,233.295 160.210,234.011 156.800 C 235.883 147.880,235.860 148.287,234.528 147.717 C 232.426 146.818,225.816 144.888,222.600 144.235 C 220.840 143.878,218.595 143.398,217.612 143.170 C 216.628 142.942,214.063 142.649,211.912 142.517 L 208.000 142.279 208.000 133.940 L 208.000 125.600 201.008 125.600 L 194.016 125.600 193.908 133.878 M290.800 199.573 L 290.800 247.545 294.639 247.673 C 296.751 247.743,298.538 247.704,298.610 247.586 C 298.682 247.469,298.755 225.824,298.773 199.486 L 298.805 151.600 294.802 151.600 L 290.800 151.600 290.800 199.573 M114.000 259.593 C 114.000 259.809,113.280 261.162,112.400 262.600 C 110.322 265.996,110.312 265.959,113.700 267.707 C 115.295 268.529,117.770 269.854,119.200 270.649 C 120.630 271.445,122.970 272.732,124.400 273.509 C 125.830 274.286,127.671 275.344,128.492 275.861 C 129.313 276.377,130.072 276.800,130.181 276.800 C 130.289 276.800,131.747 277.610,133.422 278.600 C 135.096 279.590,136.545 280.400,136.641 280.400 C 136.737 280.400,137.487 280.820,138.308 281.332 C 139.129 281.845,141.510 283.169,143.600 284.273 C 148.160 286.683,151.255 288.397,151.800 288.812 C 152.020 288.980,155.980 291.208,160.600 293.764 C 165.220 296.319,169.270 298.594,169.600 298.820 C 169.930 299.045,170.695 299.442,171.300 299.702 C 171.905 299.962,172.400 300.316,172.400 300.488 C 172.400 300.659,172.582 300.800,172.803 300.800 C 173.025 300.800,174.960 301.813,177.103 303.052 C 184.963 307.593,186.720 308.452,187.051 307.917 C 187.223 307.640,187.804 306.600,188.343 305.607 C 190.824 301.033,190.823 301.352,188.375 300.070 C 184.970 298.286,180.411 295.774,178.348 294.543 C 177.109 293.804,175.987 293.200,175.855 293.200 C 175.722 293.200,174.438 292.480,173.000 291.600 C 171.562 290.720,170.314 290.000,170.226 290.000 C 170.138 290.000,168.746 289.222,167.133 288.270 C 165.520 287.319,162.670 285.725,160.800 284.727 C 158.930 283.730,156.590 282.463,155.600 281.912 C 154.610 281.361,152.720 280.317,151.400 279.592 C 150.080 278.867,148.370 277.881,147.600 277.400 C 146.830 276.919,145.210 275.978,144.000 275.309 C 142.790 274.639,139.280 272.693,136.200 270.984 C 133.120 269.275,129.610 267.338,128.400 266.681 C 127.190 266.023,126.020 265.349,125.800 265.183 C 122.787 262.914,114.000 258.751,114.000 259.593 " stroke="none" fill="#9ea6aa" fill-rule="evenodd"></path><path id="path1" d="M0.000 200.000 L 0.000 400.000 200.000 400.000 L 400.000 400.000 400.000 200.000 L 400.000 0.000 200.000 0.000 L 0.000 0.000 0.000 200.000 M201.886 57.459 C 202.939 58.041,205.150 59.275,206.800 60.200 C 208.450 61.125,210.700 62.382,211.800 62.993 C 215.974 65.311,220.659 67.928,222.200 68.802 C 223.080 69.301,224.970 70.337,226.400 71.105 C 227.830 71.873,229.180 72.635,229.400 72.798 C 229.620 72.961,230.790 73.637,232.000 74.301 C 239.579 78.460,245.531 81.799,246.854 82.634 C 247.696 83.165,248.482 83.600,248.601 83.600 C 248.721 83.600,251.740 85.247,255.309 87.259 C 258.879 89.271,262.790 91.453,264.000 92.108 C 265.210 92.762,267.550 94.063,269.200 94.999 C 270.850 95.934,274.090 97.744,276.400 99.021 C 280.716 101.406,281.276 101.718,286.400 104.589 C 288.050 105.513,291.920 107.679,295.000 109.402 C 303.322 114.057,310.249 117.935,313.400 119.702 C 314.940 120.566,317.370 121.909,318.800 122.687 C 320.230 123.465,321.613 124.367,321.874 124.692 C 322.946 126.027,322.281 274.237,321.200 274.860 C 320.505 275.260,314.133 278.837,309.200 281.595 C 304.830 284.038,302.764 285.182,299.800 286.798 C 298.480 287.517,297.220 288.238,297.000 288.400 C 296.595 288.697,294.501 289.855,289.400 292.602 C 287.860 293.431,284.620 295.230,282.200 296.600 C 279.780 297.969,276.900 299.588,275.800 300.197 C 270.950 302.881,262.848 307.376,261.200 308.297 C 258.435 309.844,252.827 312.970,250.600 314.207 C 249.500 314.818,247.250 316.075,245.600 317.000 C 243.950 317.925,241.748 319.154,240.706 319.730 C 239.664 320.306,237.414 321.566,235.706 322.530 C 233.998 323.494,231.700 324.783,230.600 325.394 C 229.500 326.006,227.160 327.315,225.400 328.303 C 217.922 332.502,199.871 342.400,199.691 342.400 C 199.583 342.400,196.773 340.836,193.447 338.925 C 187.980 335.783,176.719 329.473,162.000 321.305 C 159.030 319.657,156.420 318.173,156.200 318.007 C 155.980 317.841,154.810 317.163,153.600 316.499 C 150.276 314.675,140.814 309.426,139.000 308.400 C 135.425 306.377,128.215 302.373,124.600 300.402 C 123.280 299.683,122.020 298.964,121.800 298.805 C 121.580 298.645,120.410 297.977,119.200 297.319 C 117.990 296.662,115.380 295.219,113.400 294.114 C 105.500 289.703,100.729 287.088,94.000 283.480 C 92.350 282.595,90.370 281.480,89.600 281.003 C 88.429 280.276,81.402 276.435,78.600 274.989 C 77.805 274.579,77.799 274.124,77.705 199.588 L 77.609 124.600 84.305 120.902 C 87.987 118.868,91.990 116.639,93.200 115.949 C 94.410 115.258,97.920 113.303,101.000 111.603 C 104.080 109.903,107.320 108.102,108.200 107.601 C 109.080 107.101,110.970 106.063,112.400 105.295 C 113.830 104.527,115.180 103.765,115.400 103.602 C 115.620 103.439,116.790 102.763,118.000 102.099 C 119.210 101.435,122.630 99.544,125.600 97.898 C 128.570 96.251,131.900 94.406,133.000 93.798 C 134.100 93.190,135.180 92.563,135.400 92.404 C 135.620 92.245,136.790 91.574,138.000 90.912 C 141.027 89.256,154.694 81.683,158.600 79.497 C 160.360 78.512,162.700 77.208,163.800 76.600 C 164.900 75.991,165.980 75.363,166.200 75.205 C 166.578 74.932,168.723 73.753,174.200 70.806 C 175.520 70.096,176.780 69.373,177.000 69.199 C 177.220 69.026,179.830 67.538,182.800 65.894 C 185.770 64.249,189.010 62.455,190.000 61.907 C 190.990 61.359,192.880 60.318,194.200 59.593 C 195.520 58.868,197.230 57.863,198.000 57.361 C 199.767 56.208,199.617 56.204,201.886 57.459 M198.600 77.212 C 197.940 77.656,196.140 78.666,194.600 79.456 C 193.060 80.246,189.730 82.065,187.200 83.498 C 184.670 84.931,181.250 86.868,179.600 87.803 C 177.950 88.737,175.340 90.178,173.800 91.005 C 172.260 91.832,168.390 93.988,165.200 95.797 C 162.010 97.605,158.500 99.584,157.400 100.194 C 156.300 100.805,153.870 102.157,152.000 103.200 C 150.130 104.243,147.700 105.597,146.600 106.210 C 145.500 106.823,142.890 108.311,140.800 109.517 C 138.710 110.723,133.670 113.555,129.600 115.811 C 125.530 118.066,120.760 120.717,119.000 121.702 C 117.240 122.688,114.900 123.996,113.800 124.610 C 112.700 125.225,111.170 126.118,110.400 126.596 C 109.630 127.075,107.020 128.528,104.600 129.827 C 102.180 131.126,99.480 132.600,98.600 133.102 C 97.720 133.605,96.594 134.222,96.099 134.473 L 95.198 134.930 95.299 199.504 L 95.400 264.078 97.000 264.974 C 97.880 265.467,100.220 266.740,102.200 267.803 C 107.861 270.841,112.789 273.584,114.359 274.569 C 115.152 275.066,116.700 275.975,117.800 276.588 C 125.627 280.954,127.332 281.894,130.000 283.314 C 131.650 284.191,134.890 285.992,137.200 287.316 C 139.510 288.639,142.120 290.123,143.000 290.612 C 151.367 295.269,162.656 301.576,166.400 303.685 C 168.930 305.109,171.810 306.724,172.800 307.272 C 177.149 309.682,184.317 313.707,185.600 314.461 C 186.370 314.913,189.430 316.634,192.400 318.285 C 195.370 319.937,198.084 321.538,198.431 321.844 C 199.291 322.601,200.273 322.542,201.538 321.659 C 202.122 321.252,204.400 319.926,206.600 318.713 C 208.800 317.500,211.320 316.099,212.200 315.599 C 213.080 315.100,214.880 314.104,216.200 313.387 C 217.520 312.669,220.378 311.074,222.551 309.841 C 224.724 308.609,226.555 307.600,226.618 307.600 C 226.682 307.600,228.104 306.790,229.778 305.800 C 231.453 304.810,232.878 304.000,232.945 304.000 C 233.012 304.000,235.274 302.740,237.972 301.200 C 240.669 299.660,242.939 298.400,243.017 298.400 C 243.094 298.400,244.202 297.796,245.479 297.058 C 246.755 296.320,248.790 295.174,250.000 294.512 C 251.210 293.850,255.170 291.645,258.800 289.612 C 264.840 286.230,266.398 285.364,271.494 282.556 C 272.426 282.042,274.586 280.834,276.294 279.870 C 278.002 278.906,280.300 277.620,281.400 277.011 C 282.500 276.403,285.470 274.729,288.000 273.292 C 290.530 271.854,293.410 270.229,294.400 269.680 C 299.768 266.705,302.313 265.314,303.300 264.818 L 304.400 264.265 304.400 199.578 L 304.400 134.892 303.489 134.295 C 302.988 133.967,300.063 132.297,296.989 130.584 C 290.197 126.799,285.930 124.409,283.800 123.197 C 281.756 122.033,266.007 113.221,261.800 110.887 C 260.040 109.910,258.420 108.975,258.200 108.809 C 257.980 108.642,256.720 107.915,255.400 107.192 C 254.080 106.469,250.840 104.673,248.200 103.201 C 245.560 101.728,242.500 100.022,241.400 99.409 C 240.300 98.795,237.960 97.487,236.200 96.500 C 234.440 95.514,228.680 92.322,223.400 89.408 C 218.120 86.494,213.080 83.700,212.200 83.198 C 210.313 82.123,199.905 76.399,199.843 76.403 C 199.819 76.404,199.260 76.768,198.600 77.212 M188.780 93.767 C 191.313 97.960,191.313 97.954,188.300 99.511 C 185.440 100.990,184.078 101.743,172.800 108.083 C 168.290 110.618,162.980 113.593,161.000 114.694 C 159.020 115.794,156.680 117.104,155.800 117.604 C 154.174 118.529,140.596 126.138,134.400 129.597 C 132.530 130.640,130.370 131.851,129.600 132.286 C 113.777 141.225,114.158 141.042,113.564 140.000 C 113.377 139.670,112.498 138.182,111.611 136.693 C 109.451 133.064,109.491 132.864,112.700 131.155 C 118.245 128.201,121.012 126.690,121.400 126.403 C 121.620 126.240,122.610 125.661,123.600 125.116 C 124.590 124.571,128.730 122.230,132.800 119.914 C 136.870 117.598,141.640 114.936,143.400 114.000 C 145.160 113.063,146.960 112.077,147.400 111.808 C 147.840 111.539,149.460 110.630,151.000 109.789 C 152.540 108.948,154.340 107.941,155.000 107.552 C 155.660 107.163,158.720 105.458,161.800 103.763 C 164.880 102.068,168.120 100.284,169.000 99.798 C 170.873 98.763,182.282 92.290,184.576 90.960 C 186.514 89.836,186.333 89.715,188.780 93.767 M208.308 133.249 L 208.416 141.498 211.308 141.769 C 219.780 142.563,236.400 146.838,236.400 148.223 C 236.400 148.340,236.142 149.553,235.826 150.918 C 235.511 152.283,234.668 156.250,233.952 159.732 C 232.740 165.636,232.596 166.051,231.826 165.865 C 231.372 165.755,228.868 164.931,226.263 164.033 C 202.301 155.775,182.595 159.376,182.654 172.000 C 182.690 179.788,187.341 182.873,207.200 188.279 C 233.247 195.371,241.988 203.895,241.988 222.200 C 241.988 231.464,240.025 237.045,234.420 243.716 C 230.037 248.932,221.878 252.812,210.303 255.185 L 208.006 255.656 208.060 263.928 L 208.114 272.200 200.920 272.309 L 193.725 272.418 193.462 266.946 C 193.318 263.936,193.200 260.245,193.200 258.744 C 193.200 255.619,193.440 255.790,188.600 255.445 C 180.002 254.831,170.224 252.330,161.700 248.563 C 159.806 247.726,159.734 247.466,160.422 243.955 C 161.032 240.840,162.006 235.377,162.446 232.600 C 163.217 227.726,163.032 227.889,166.161 229.356 C 167.965 230.201,171.896 231.777,174.800 232.820 C 190.597 238.489,210.708 238.321,216.798 232.467 C 221.010 228.419,221.004 220.604,216.786 216.386 C 214.222 213.822,209.678 211.851,198.400 208.410 C 169.164 199.492,161.493 193.362,160.012 177.734 C 158.358 160.281,166.704 148.788,184.800 143.599 C 186.450 143.126,188.322 142.573,188.960 142.370 C 189.598 142.166,190.813 142.000,191.660 142.000 C 192.617 142.000,193.206 141.811,193.215 141.500 C 193.224 141.225,193.217 137.481,193.201 133.181 C 193.185 128.880,193.302 125.232,193.461 125.072 C 193.620 124.913,197.002 124.831,200.975 124.891 L 208.200 125.000 208.308 133.249 M299.102 199.500 L 299.000 248.200 294.893 248.314 C 291.820 248.399,290.743 248.299,290.617 247.914 C 290.389 247.222,290.116 161.900,290.322 155.700 L 290.484 150.800 294.844 150.800 L 299.203 150.800 299.102 199.500 M118.749 260.652 C 121.087 261.890,123.990 263.488,125.200 264.204 C 127.371 265.487,140.124 272.607,144.400 274.924 C 145.610 275.579,146.780 276.248,147.000 276.411 C 147.528 276.801,156.242 281.659,164.600 286.224 C 166.140 287.065,168.899 288.618,170.732 289.676 C 172.564 290.734,174.136 291.600,174.225 291.600 C 174.313 291.600,175.514 292.288,176.893 293.129 C 178.272 293.970,181.110 295.563,183.200 296.668 C 188.704 299.580,190.800 300.922,190.800 301.534 C 190.800 302.343,187.485 308.469,186.933 308.681 C 186.392 308.889,182.595 306.901,173.800 301.805 C 171.600 300.531,167.280 298.098,164.200 296.399 C 155.311 291.496,154.623 291.110,154.200 290.790 C 153.980 290.623,150.110 288.466,145.600 285.997 C 141.090 283.527,135.420 280.382,133.000 279.008 C 130.580 277.634,127.700 276.012,126.600 275.403 C 125.500 274.794,123.070 273.443,121.200 272.400 C 119.330 271.357,116.990 270.053,116.000 269.501 C 115.010 268.950,113.249 267.988,112.087 267.364 C 110.925 266.740,110.025 266.042,110.087 265.814 C 110.244 265.238,114.166 258.425,114.349 258.411 C 114.431 258.405,116.411 259.413,118.749 260.652 " stroke="none" fill="#fbfbfb" fill-rule="evenodd"></path><path id="path2" d="M177.824 69.013 C 177.396 69.336,177.227 69.600,177.447 69.600 C 177.667 69.600,178.196 69.336,178.624 69.013 C 179.051 68.690,179.220 68.425,179.000 68.425 C 178.780 68.425,178.251 68.690,177.824 69.013 M173.500 71.429 C 172.005 72.240,172.096 72.578,173.600 71.800 C 174.260 71.459,174.800 71.094,174.800 70.990 C 174.800 70.732,174.757 70.747,173.500 71.429 M162.700 77.429 C 161.149 78.270,161.325 78.561,162.900 77.759 C 164.408 76.993,164.675 76.794,164.167 76.816 C 163.965 76.825,163.305 77.101,162.700 77.429 M189.900 81.227 C 189.075 81.663,188.400 82.108,188.400 82.218 C 188.400 82.327,189.120 82.049,190.000 81.600 C 190.880 81.151,191.600 80.697,191.600 80.592 C 191.600 80.330,191.597 80.331,189.900 81.227 M210.400 81.784 C 210.400 81.894,211.120 82.351,212.000 82.800 C 212.880 83.249,213.600 83.526,213.600 83.416 C 213.600 83.306,212.880 82.849,212.000 82.400 C 211.120 81.951,210.400 81.674,210.400 81.784 M173.500 90.427 C 172.675 90.863,172.000 91.308,172.000 91.418 C 172.000 91.527,172.720 91.249,173.600 90.800 C 174.480 90.351,175.200 89.897,175.200 89.792 C 175.200 89.530,175.197 89.531,173.500 90.427 M185.375 90.841 C 185.174 91.166,185.245 91.219,185.593 91.004 C 185.923 90.800,186.397 91.031,186.904 91.642 L 187.698 92.600 187.115 91.622 C 186.422 90.461,185.786 90.175,185.375 90.841 M169.100 92.827 C 168.275 93.263,167.600 93.708,167.600 93.818 C 167.600 93.927,168.320 93.649,169.200 93.200 C 170.080 92.751,170.800 92.297,170.800 92.192 C 170.800 91.930,170.797 91.931,169.100 92.827 M281.200 102.179 C 281.200 102.289,281.740 102.659,282.400 103.000 C 283.060 103.341,283.600 103.531,283.600 103.421 C 283.600 103.311,283.060 102.941,282.400 102.600 C 281.740 102.259,281.200 102.069,281.200 102.179 M151.100 103.029 C 149.605 103.840,149.696 104.178,151.200 103.400 C 151.860 103.059,152.400 102.694,152.400 102.590 C 152.400 102.332,152.357 102.347,151.100 103.029 M178.700 104.027 C 177.875 104.463,177.200 104.908,177.200 105.018 C 177.200 105.127,177.920 104.849,178.800 104.400 C 179.680 103.951,180.400 103.497,180.400 103.392 C 180.400 103.130,180.397 103.131,178.700 104.027 M147.097 105.166 C 145.285 106.328,145.286 106.556,147.100 105.641 C 148.035 105.170,148.800 104.697,148.800 104.592 C 148.800 104.249,148.223 104.444,147.097 105.166 M155.800 107.410 C 154.920 107.952,154.359 108.397,154.553 108.398 C 154.963 108.400,157.600 106.816,157.600 106.567 C 157.600 106.313,157.521 106.351,155.800 107.410 M142.697 107.566 C 140.885 108.728,140.886 108.956,142.700 108.041 C 143.635 107.570,144.400 107.097,144.400 106.992 C 144.400 106.649,143.823 106.844,142.697 107.566 M172.700 107.429 C 171.205 108.240,171.296 108.578,172.800 107.800 C 173.460 107.459,174.000 107.094,174.000 106.990 C 174.000 106.732,173.957 106.747,172.700 107.429 M162.300 113.227 C 161.475 113.663,160.800 114.108,160.800 114.218 C 160.800 114.327,161.520 114.049,162.400 113.600 C 163.280 113.151,164.000 112.697,164.000 112.592 C 164.000 112.330,163.997 112.331,162.300 113.227 M157.897 115.566 C 156.085 116.728,156.086 116.956,157.900 116.041 C 158.835 115.570,159.600 115.097,159.600 114.992 C 159.600 114.649,159.023 114.844,157.897 115.566 M152.297 118.766 C 150.698 119.791,150.403 120.206,151.800 119.466 C 153.476 118.577,154.271 118.008,153.800 118.035 C 153.580 118.048,152.904 118.377,152.297 118.766 M120.697 119.966 C 118.885 121.128,118.886 121.356,120.700 120.441 C 121.635 119.970,122.400 119.497,122.400 119.392 C 122.400 119.049,121.823 119.244,120.697 119.966 M313.200 120.184 C 313.200 120.294,313.920 120.751,314.800 121.200 C 315.680 121.649,316.400 121.926,316.400 121.816 C 316.400 121.706,315.680 121.249,314.800 120.800 C 313.920 120.351,313.200 120.074,313.200 120.184 M129.400 122.190 C 128.520 122.732,127.925 123.181,128.077 123.188 C 128.424 123.203,131.200 121.579,131.200 121.360 C 131.200 121.100,131.076 121.157,129.400 122.190 M78.185 124.900 C 78.080 125.175,78.041 158.970,78.097 200.000 L 78.200 274.600 78.400 199.500 C 78.510 158.195,78.549 124.400,78.487 124.400 C 78.426 124.400,78.289 124.625,78.185 124.900 M321.600 199.120 L 321.800 273.800 321.901 199.421 C 321.957 158.513,321.867 124.907,321.701 124.741 C 321.535 124.575,321.490 158.046,321.600 199.120 M193.867 125.467 C 193.720 125.613,193.600 129.380,193.600 133.837 C 193.600 140.738,193.510 141.969,192.992 142.130 C 192.567 142.262,192.597 142.299,193.092 142.254 C 193.741 142.195,193.809 141.494,193.908 133.904 L 194.016 125.618 201.108 125.499 L 208.200 125.380 201.167 125.290 C 197.298 125.241,194.013 125.320,193.867 125.467 M135.900 128.027 C 135.075 128.463,134.400 128.908,134.400 129.018 C 134.400 129.127,135.120 128.849,136.000 128.400 C 136.880 127.951,137.600 127.497,137.600 127.392 C 137.600 127.130,137.597 127.131,135.900 128.027 M94.847 134.543 C 94.518 134.940,94.424 145.275,94.500 172.843 L 94.604 210.600 94.702 172.720 C 94.794 137.125,94.842 134.815,95.500 134.432 C 95.885 134.208,95.997 134.019,95.749 134.012 C 95.501 134.005,95.095 134.245,94.847 134.543 M304.353 134.544 C 304.685 134.944,304.778 152.228,304.702 199.906 C 304.646 235.556,304.735 264.640,304.900 264.538 C 305.255 264.319,305.312 135.557,304.957 134.633 C 304.824 134.285,304.532 134.000,304.308 134.000 C 304.055 134.000,304.073 134.205,304.353 134.544 M113.391 139.100 C 113.737 139.815,114.203 140.400,114.426 140.400 C 114.687 140.400,114.679 140.222,114.402 139.900 C 114.166 139.625,113.700 139.040,113.367 138.600 C 112.858 137.927,112.861 138.007,113.391 139.100 M208.000 142.089 C 208.000 142.260,209.035 142.379,210.300 142.354 C 212.741 142.304,212.502 142.128,209.700 141.911 C 208.765 141.838,208.000 141.919,208.000 142.089 M217.400 143.181 C 218.168 143.529,220.310 143.756,219.967 143.453 C 219.875 143.372,219.080 143.196,218.200 143.062 C 217.085 142.893,216.842 142.929,217.400 143.181 M223.400 144.400 C 223.840 144.589,224.470 144.744,224.800 144.744 C 225.178 144.744,225.104 144.617,224.600 144.400 C 224.160 144.211,223.530 144.056,223.200 144.056 C 222.822 144.056,222.896 144.183,223.400 144.400 M177.200 146.600 C 176.650 146.914,176.380 147.172,176.600 147.172 C 176.820 147.172,177.450 146.914,178.000 146.600 C 178.550 146.286,178.820 146.028,178.600 146.028 C 178.380 146.028,177.750 146.286,177.200 146.600 M235.000 151.600 C 234.848 152.291,234.807 152.941,234.909 153.042 C 235.011 153.144,235.209 152.653,235.350 151.950 C 235.683 150.283,235.360 149.960,235.000 151.600 M290.585 151.700 C 290.480 151.975,290.440 173.710,290.497 200.000 L 290.600 247.800 294.200 247.822 L 297.800 247.845 294.300 247.707 L 290.800 247.570 290.800 199.559 L 290.800 151.549 294.963 151.674 C 297.253 151.743,299.042 151.665,298.939 151.500 C 298.603 150.959,290.796 151.146,290.585 151.700 M167.781 153.300 L 166.200 155.000 167.900 153.419 C 169.481 151.948,169.784 151.600,169.481 151.600 C 169.416 151.600,168.651 152.365,167.781 153.300 M165.523 155.900 C 164.818 156.721,164.290 157.600,164.501 157.600 C 164.583 157.600,165.049 157.060,165.537 156.400 C 166.501 155.096,166.492 154.772,165.523 155.900 M197.100 159.482 C 197.595 159.578,198.405 159.578,198.900 159.482 C 199.395 159.387,198.990 159.309,198.000 159.309 C 197.010 159.309,196.605 159.387,197.100 159.482 M206.105 159.487 C 206.714 159.579,207.614 159.577,208.105 159.482 C 208.597 159.387,208.100 159.311,207.000 159.314 C 205.900 159.317,205.497 159.395,206.105 159.487 M187.000 162.348 C 186.340 162.758,185.350 163.607,184.800 164.236 C 183.960 165.194,184.062 165.155,185.432 163.989 C 186.329 163.225,187.409 162.386,187.832 162.124 C 188.254 161.861,188.510 161.637,188.400 161.625 C 188.290 161.613,187.660 161.938,187.000 162.348 M232.600 163.200 C 232.448 163.891,232.407 164.541,232.509 164.642 C 232.611 164.744,232.809 164.253,232.950 163.550 C 233.283 161.883,232.960 161.560,232.600 163.200 M182.789 167.300 C 182.365 168.235,182.032 169.450,182.049 170.000 C 182.072 170.738,182.174 170.604,182.437 169.487 C 182.633 168.655,183.069 167.440,183.407 166.787 C 183.744 166.134,183.917 165.600,183.791 165.600 C 183.664 165.600,183.214 166.365,182.789 167.300 M160.146 173.800 C 160.147 176.000,160.214 176.849,160.295 175.687 C 160.376 174.524,160.376 172.724,160.293 171.687 C 160.211 170.649,160.145 171.600,160.146 173.800 M182.006 174.033 C 182.009 174.565,182.189 175.270,182.406 175.600 C 182.682 176.022,182.723 175.785,182.542 174.800 C 182.225 173.075,181.998 172.749,182.006 174.033 M185.293 179.825 C 186.114 180.702,187.374 181.738,188.093 182.127 C 189.356 182.811,189.366 182.810,188.400 182.117 C 187.850 181.723,186.590 180.687,185.600 179.816 L 183.800 178.231 185.293 179.825 M161.256 183.200 C 161.256 183.530,161.411 184.160,161.600 184.600 C 161.817 185.104,161.944 185.178,161.944 184.800 C 161.944 184.470,161.789 183.840,161.600 183.400 C 161.383 182.896,161.256 182.822,161.256 183.200 M166.400 192.925 C 166.400 192.994,166.985 193.579,167.700 194.225 L 169.000 195.400 167.825 194.100 C 166.730 192.888,166.400 192.616,166.400 192.925 M185.600 203.933 C 185.930 204.136,186.650 204.424,187.200 204.571 C 187.895 204.757,188.017 204.725,187.600 204.467 C 187.270 204.264,186.550 203.976,186.000 203.829 C 185.305 203.643,185.183 203.675,185.600 203.933 M204.600 210.000 C 205.040 210.189,205.670 210.344,206.000 210.344 C 206.378 210.344,206.304 210.217,205.800 210.000 C 205.360 209.811,204.730 209.656,204.400 209.656 C 204.022 209.656,204.096 209.783,204.600 210.000 M94.588 234.600 C 94.588 247.800,94.638 253.142,94.700 246.471 C 94.761 239.801,94.761 229.001,94.700 222.471 C 94.638 215.942,94.588 221.400,94.588 234.600 M298.524 215.000 C 298.526 216.320,298.601 216.812,298.690 216.093 C 298.779 215.374,298.777 214.294,298.686 213.693 C 298.595 213.092,298.522 213.680,298.524 215.000 M232.581 244.500 L 231.000 246.200 232.700 244.619 C 233.635 243.749,234.400 242.984,234.400 242.919 C 234.400 242.616,234.052 242.919,232.581 244.500 M124.800 274.021 C 125.842 274.730,127.600 275.628,127.600 275.450 C 127.600 275.228,124.839 273.598,124.477 273.606 C 124.325 273.609,124.470 273.796,124.800 274.021 M320.300 274.629 C 318.805 275.440,318.896 275.778,320.400 275.000 C 321.060 274.659,321.600 274.294,321.600 274.190 C 321.600 273.932,321.557 273.947,320.300 274.629 M317.097 276.366 C 315.498 277.391,315.203 277.806,316.600 277.066 C 318.276 276.177,319.071 275.608,318.600 275.635 C 318.380 275.648,317.704 275.977,317.097 276.366 M312.700 278.827 C 311.875 279.263,311.200 279.708,311.200 279.818 C 311.200 279.927,311.920 279.649,312.800 279.200 C 313.680 278.751,314.400 278.297,314.400 278.192 C 314.400 277.930,314.397 277.931,312.700 278.827 M141.200 290.184 C 141.200 290.294,141.920 290.751,142.800 291.200 C 143.680 291.649,144.400 291.926,144.400 291.816 C 144.400 291.706,143.680 291.249,142.800 290.800 C 141.920 290.351,141.200 290.074,141.200 290.184 M155.200 290.979 C 155.200 291.089,155.740 291.459,156.400 291.800 C 157.060 292.141,157.600 292.331,157.600 292.221 C 157.600 292.111,157.060 291.741,156.400 291.400 C 155.740 291.059,155.200 290.869,155.200 290.979 M250.662 294.447 C 249.816 294.893,249.209 295.342,249.312 295.445 C 249.502 295.636,252.400 294.055,252.400 293.760 C 252.400 293.534,252.371 293.545,250.662 294.447 M128.000 301.779 C 128.000 301.889,128.540 302.259,129.200 302.600 C 129.860 302.941,130.400 303.131,130.400 303.021 C 130.400 302.911,129.860 302.541,129.200 302.200 C 128.540 301.859,128.000 301.669,128.000 301.779 M178.000 303.779 C 178.000 303.889,178.540 304.259,179.200 304.600 C 179.860 304.941,180.400 305.131,180.400 305.021 C 180.400 304.911,179.860 304.541,179.200 304.200 C 178.540 303.859,178.000 303.669,178.000 303.779 M168.400 305.379 C 168.400 305.489,168.940 305.859,169.600 306.200 C 170.260 306.541,170.800 306.731,170.800 306.621 C 170.800 306.511,170.260 306.141,169.600 305.800 C 168.940 305.459,168.400 305.269,168.400 305.379 M198.344 322.376 C 199.368 323.269,200.211 323.430,200.597 322.805 C 200.738 322.577,200.576 322.511,200.218 322.649 C 199.875 322.780,199.100 322.587,198.497 322.220 L 197.400 321.553 198.344 322.376 M178.000 329.779 C 178.000 329.889,178.540 330.259,179.200 330.600 C 179.860 330.941,180.400 331.131,180.400 331.021 C 180.400 330.911,179.860 330.541,179.200 330.200 C 178.540 329.859,178.000 329.669,178.000 329.779 M220.700 330.229 C 219.205 331.040,219.296 331.378,220.800 330.600 C 221.460 330.259,222.000 329.894,222.000 329.790 C 222.000 329.532,221.957 329.547,220.700 330.229 M207.900 337.227 C 207.075 337.663,206.400 338.108,206.400 338.218 C 206.400 338.327,207.120 338.049,208.000 337.600 C 208.880 337.151,209.600 336.697,209.600 336.592 C 209.600 336.330,209.597 336.331,207.900 337.227 " stroke="none" fill="#b8b7b7" fill-rule="evenodd"></path><path id="path3" d="M201.600 57.622 C 202.633 58.326,205.200 59.625,205.200 59.442 C 205.200 59.233,201.605 57.197,201.250 57.206 C 201.112 57.209,201.270 57.396,201.600 57.622 M205.600 59.784 C 205.600 59.894,206.320 60.351,207.200 60.800 C 208.080 61.249,208.800 61.526,208.800 61.416 C 208.800 61.306,208.080 60.849,207.200 60.400 C 206.320 59.951,205.600 59.674,205.600 59.784 M191.500 61.029 C 190.005 61.840,190.096 62.178,191.600 61.400 C 192.260 61.059,192.800 60.694,192.800 60.590 C 192.800 60.332,192.757 60.347,191.500 61.029 M209.200 61.779 C 209.200 61.889,209.740 62.259,210.400 62.600 C 211.060 62.941,211.600 63.131,211.600 63.021 C 211.600 62.911,211.060 62.541,210.400 62.200 C 209.740 61.859,209.200 61.669,209.200 61.779 M183.900 65.227 C 183.075 65.663,182.400 66.108,182.400 66.218 C 182.400 66.327,183.120 66.049,184.000 65.600 C 184.880 65.151,185.600 64.697,185.600 64.592 C 185.600 64.330,185.597 64.331,183.900 65.227 M215.600 65.387 C 215.600 65.497,216.500 66.043,217.600 66.600 C 218.700 67.157,219.600 67.523,219.600 67.413 C 219.600 67.303,218.700 66.757,217.600 66.200 C 216.500 65.643,215.600 65.277,215.600 65.387 M180.262 67.247 C 179.416 67.693,178.809 68.142,178.912 68.245 C 179.102 68.436,182.000 66.855,182.000 66.560 C 182.000 66.334,181.971 66.345,180.262 67.247 M171.897 71.966 C 170.298 72.991,170.003 73.406,171.400 72.666 C 173.076 71.777,173.871 71.208,173.400 71.235 C 173.180 71.248,172.504 71.577,171.897 71.966 M167.100 74.629 C 165.605 75.440,165.696 75.778,167.200 75.000 C 167.860 74.659,168.400 74.294,168.400 74.190 C 168.400 73.932,168.357 73.947,167.100 74.629 M233.600 75.379 C 233.600 75.489,234.140 75.859,234.800 76.200 C 235.460 76.541,236.000 76.731,236.000 76.621 C 236.000 76.511,235.460 76.141,234.800 75.800 C 234.140 75.459,233.600 75.269,233.600 75.379 M197.200 77.618 C 196.210 78.260,195.580 78.788,195.800 78.791 C 196.020 78.794,197.010 78.258,198.000 77.600 C 198.990 76.942,199.620 76.414,199.400 76.427 C 199.180 76.441,198.190 76.976,197.200 77.618 M157.900 79.826 C 156.855 80.370,156.000 80.905,156.000 81.014 C 156.000 81.124,156.900 80.757,158.000 80.200 C 159.100 79.643,160.000 79.100,160.000 78.993 C 160.000 78.729,160.036 78.714,157.900 79.826 M193.100 79.826 C 192.055 80.370,191.200 80.905,191.200 81.014 C 191.200 81.124,192.100 80.757,193.200 80.200 C 194.300 79.643,195.200 79.100,195.200 78.993 C 195.200 78.729,195.236 78.714,193.100 79.826 M204.800 78.987 C 204.800 79.097,205.700 79.643,206.800 80.200 C 207.900 80.757,208.800 81.123,208.800 81.013 C 208.800 80.903,207.900 80.357,206.800 79.800 C 205.700 79.243,204.800 78.877,204.800 78.987 M240.000 78.987 C 240.000 79.097,240.900 79.643,242.000 80.200 C 243.100 80.757,244.000 81.123,244.000 81.013 C 244.000 80.903,243.100 80.357,242.000 79.800 C 240.900 79.243,240.000 78.877,240.000 78.987 M189.100 82.027 C 188.275 82.463,187.600 82.908,187.600 83.018 C 187.600 83.127,188.320 82.849,189.200 82.400 C 190.080 81.951,190.800 81.497,190.800 81.392 C 190.800 81.130,190.797 81.131,189.100 82.027 M150.700 83.829 C 149.205 84.640,149.296 84.978,150.800 84.200 C 151.460 83.859,152.000 83.494,152.000 83.390 C 152.000 83.132,151.957 83.147,150.700 83.829 M183.500 85.227 C 182.675 85.663,182.000 86.108,182.000 86.218 C 182.000 86.327,182.720 86.049,183.600 85.600 C 184.480 85.151,185.200 84.697,185.200 84.592 C 185.200 84.330,185.197 84.331,183.500 85.227 M214.800 84.587 C 214.800 84.697,215.700 85.243,216.800 85.800 C 217.900 86.357,218.800 86.723,218.800 86.613 C 218.800 86.503,217.900 85.957,216.800 85.400 C 215.700 84.843,214.800 84.477,214.800 84.587 M147.100 85.826 C 146.055 86.370,145.200 86.905,145.200 87.014 C 145.200 87.124,146.100 86.757,147.200 86.200 C 148.300 85.643,149.200 85.100,149.200 84.993 C 149.200 84.729,149.236 84.714,147.100 85.826 M250.800 84.984 C 250.800 85.094,251.520 85.551,252.400 86.000 C 253.280 86.449,254.000 86.726,254.000 86.616 C 254.000 86.506,253.280 86.049,252.400 85.600 C 251.520 85.151,250.800 84.874,250.800 84.984 M219.200 86.987 C 219.200 87.097,220.100 87.643,221.200 88.200 C 222.300 88.757,223.200 89.123,223.200 89.013 C 223.200 88.903,222.300 88.357,221.200 87.800 C 220.100 87.243,219.200 86.877,219.200 86.987 M254.600 87.084 C 254.820 87.309,256.260 88.175,257.800 89.009 C 259.340 89.843,260.420 90.341,260.200 90.116 C 259.980 89.891,258.540 89.025,257.000 88.191 C 255.460 87.357,254.380 86.859,254.600 87.084 M143.100 88.027 C 142.275 88.463,141.600 88.908,141.600 89.018 C 141.600 89.127,142.320 88.849,143.200 88.400 C 144.080 87.951,144.800 87.497,144.800 87.392 C 144.800 87.130,144.797 87.131,143.100 88.027 M176.700 89.026 C 175.655 89.570,174.800 90.105,174.800 90.214 C 174.800 90.324,175.700 89.957,176.800 89.400 C 177.900 88.843,178.800 88.300,178.800 88.193 C 178.800 87.929,178.836 87.914,176.700 89.026 M223.600 89.384 C 223.600 89.494,224.320 89.951,225.200 90.400 C 226.080 90.849,226.800 91.126,226.800 91.016 C 226.800 90.906,226.080 90.449,225.200 90.000 C 224.320 89.551,223.600 89.274,223.600 89.384 M136.300 91.829 C 134.805 92.640,134.896 92.978,136.400 92.200 C 137.060 91.859,137.600 91.494,137.600 91.390 C 137.600 91.132,137.557 91.147,136.300 91.829 M171.500 91.829 C 170.005 92.640,170.096 92.978,171.600 92.200 C 172.260 91.859,172.800 91.494,172.800 91.390 C 172.800 91.132,172.757 91.147,171.500 91.829 M227.200 91.387 C 227.200 91.497,228.100 92.043,229.200 92.600 C 230.300 93.157,231.200 93.523,231.200 93.413 C 231.200 93.303,230.300 92.757,229.200 92.200 C 228.100 91.643,227.200 91.277,227.200 91.387 M181.900 92.427 C 181.075 92.863,180.400 93.308,180.400 93.418 C 180.400 93.527,181.120 93.249,182.000 92.800 C 182.880 92.351,183.600 91.897,183.600 91.792 C 183.600 91.530,183.597 91.531,181.900 92.427 M188.277 93.601 C 188.895 94.701,189.736 96.006,190.147 96.501 L 190.895 97.400 190.314 96.400 C 189.994 95.850,189.235 94.545,188.628 93.500 C 188.021 92.455,187.441 91.600,187.339 91.600 C 187.237 91.600,187.659 92.500,188.277 93.601 M168.300 93.627 C 167.475 94.063,166.800 94.508,166.800 94.618 C 166.800 94.727,167.520 94.449,168.400 94.000 C 169.280 93.551,170.000 93.097,170.000 92.992 C 170.000 92.730,169.997 92.731,168.300 93.627 M265.200 92.984 C 265.200 93.094,265.920 93.551,266.800 94.000 C 267.680 94.449,268.400 94.726,268.400 94.616 C 268.400 94.506,267.680 94.049,266.800 93.600 C 265.920 93.151,265.200 92.874,265.200 92.984 M178.700 94.229 C 177.205 95.040,177.296 95.378,178.800 94.600 C 179.460 94.259,180.000 93.894,180.000 93.790 C 180.000 93.532,179.957 93.547,178.700 94.229 M233.600 94.987 C 233.600 95.097,234.500 95.643,235.600 96.200 C 236.700 96.757,237.600 97.123,237.600 97.013 C 237.600 96.903,236.700 96.357,235.600 95.800 C 234.500 95.243,233.600 94.877,233.600 94.987 M175.500 96.027 C 174.675 96.463,174.000 96.908,174.000 97.018 C 174.000 97.127,174.720 96.849,175.600 96.400 C 176.480 95.951,177.200 95.497,177.200 95.392 C 177.200 95.130,177.197 95.131,175.500 96.027 M162.700 96.827 C 161.875 97.263,161.200 97.708,161.200 97.818 C 161.200 97.927,161.920 97.649,162.800 97.200 C 163.680 96.751,164.400 96.297,164.400 96.192 C 164.400 95.930,164.397 95.931,162.700 96.827 M271.600 96.584 C 271.600 96.694,272.320 97.151,273.200 97.600 C 274.080 98.049,274.800 98.326,274.800 98.216 C 274.800 98.106,274.080 97.649,273.200 97.200 C 272.320 96.751,271.600 96.474,271.600 96.584 M189.600 98.420 L 188.600 99.222 189.700 98.747 C 190.305 98.485,190.800 98.120,190.800 97.936 C 190.800 97.479,190.745 97.502,189.600 98.420 M159.500 98.629 C 158.005 99.440,158.096 99.778,159.600 99.000 C 160.260 98.659,160.800 98.294,160.800 98.190 C 160.800 97.932,160.757 97.947,159.500 98.629 M123.100 99.227 C 122.275 99.663,121.600 100.108,121.600 100.218 C 121.600 100.327,122.320 100.049,123.200 99.600 C 124.080 99.151,124.800 98.697,124.800 98.592 C 124.800 98.330,124.797 98.331,123.100 99.227 M275.200 98.584 C 275.200 98.694,275.920 99.151,276.800 99.600 C 277.680 100.049,278.400 100.326,278.400 100.216 C 278.400 100.106,277.680 99.649,276.800 99.200 C 275.920 98.751,275.200 98.474,275.200 98.584 M119.900 101.029 C 118.405 101.840,118.496 102.178,120.000 101.400 C 120.660 101.059,121.200 100.694,121.200 100.590 C 121.200 100.332,121.157 100.347,119.900 101.029 M183.861 101.446 C 182.794 102.001,182.002 102.535,182.100 102.633 C 182.287 102.821,186.000 100.852,186.000 100.566 C 186.000 100.332,186.010 100.328,183.861 101.446 M244.400 100.984 C 244.400 101.094,245.120 101.551,246.000 102.000 C 246.880 102.449,247.600 102.726,247.600 102.616 C 247.600 102.506,246.880 102.049,246.000 101.600 C 245.120 101.151,244.400 100.874,244.400 100.984 M153.100 102.229 C 151.605 103.040,151.696 103.378,153.200 102.600 C 153.860 102.259,154.400 101.894,154.400 101.790 C 154.400 101.532,154.357 101.547,153.100 102.229 M116.697 102.766 C 114.885 103.928,114.886 104.156,116.700 103.241 C 117.635 102.770,118.400 102.297,118.400 102.192 C 118.400 101.849,117.823 102.044,116.697 102.766 M248.000 102.984 C 248.000 103.094,248.720 103.551,249.600 104.000 C 250.480 104.449,251.200 104.726,251.200 104.616 C 251.200 104.506,250.480 104.049,249.600 103.600 C 248.720 103.151,248.000 102.874,248.000 102.984 M161.100 104.027 C 160.275 104.463,159.600 104.908,159.600 105.018 C 159.600 105.127,160.320 104.849,161.200 104.400 C 162.080 103.951,162.800 103.497,162.800 103.392 C 162.800 103.130,162.797 103.131,161.100 104.027 M177.900 104.827 C 177.075 105.263,176.400 105.708,176.400 105.818 C 176.400 105.927,177.120 105.649,178.000 105.200 C 178.880 104.751,179.600 104.297,179.600 104.192 C 179.600 103.930,179.597 103.931,177.900 104.827 M285.200 104.187 C 285.200 104.297,286.100 104.843,287.200 105.400 C 288.300 105.957,289.200 106.323,289.200 106.213 C 289.200 106.103,288.300 105.557,287.200 105.000 C 286.100 104.443,285.200 104.077,285.200 104.187 M251.600 104.979 C 251.600 105.089,252.140 105.459,252.800 105.800 C 253.460 106.141,254.000 106.331,254.000 106.221 C 254.000 106.111,253.460 105.741,252.800 105.400 C 252.140 105.059,251.600 104.869,251.600 104.979 M157.526 106.014 C 156.715 106.442,155.946 106.964,155.816 107.173 C 155.687 107.383,156.395 107.099,157.391 106.543 C 158.386 105.987,159.200 105.457,159.200 105.366 C 159.200 105.134,159.172 105.144,157.526 106.014 M145.100 106.629 C 143.605 107.440,143.696 107.778,145.200 107.000 C 145.860 106.659,146.400 106.294,146.400 106.190 C 146.400 105.932,146.357 105.947,145.100 106.629 M174.700 106.629 C 173.205 107.440,173.296 107.778,174.800 107.000 C 175.460 106.659,176.000 106.294,176.000 106.190 C 176.000 105.932,175.957 105.947,174.700 106.629 M106.697 108.366 C 104.885 109.528,104.886 109.756,106.700 108.841 C 107.635 108.370,108.400 107.897,108.400 107.792 C 108.400 107.449,107.823 107.644,106.697 108.366 M140.900 109.029 C 139.525 109.809,138.400 110.543,138.400 110.661 C 138.400 110.899,142.776 108.522,143.380 107.956 C 144.057 107.321,143.448 107.585,140.900 109.029 M171.500 108.427 C 170.675 108.863,170.000 109.308,170.000 109.418 C 170.000 109.527,170.720 109.249,171.600 108.800 C 172.480 108.351,173.200 107.897,173.200 107.792 C 173.200 107.530,173.197 107.531,171.500 108.427 M291.600 107.784 C 291.600 107.894,292.320 108.351,293.200 108.800 C 294.080 109.249,294.800 109.526,294.800 109.416 C 294.800 109.306,294.080 108.849,293.200 108.400 C 292.320 107.951,291.600 107.674,291.600 107.784 M152.300 109.029 C 150.805 109.840,150.896 110.178,152.400 109.400 C 153.060 109.059,153.600 108.694,153.600 108.590 C 153.600 108.332,153.557 108.347,152.300 109.029 M102.700 110.626 C 101.655 111.170,100.800 111.705,100.800 111.814 C 100.800 111.924,101.700 111.557,102.800 111.000 C 103.900 110.443,104.800 109.900,104.800 109.793 C 104.800 109.529,104.836 109.514,102.700 110.626 M167.900 110.427 C 167.075 110.863,166.400 111.308,166.400 111.418 C 166.400 111.527,167.120 111.249,168.000 110.800 C 168.880 110.351,169.600 109.897,169.600 109.792 C 169.600 109.530,169.597 109.531,167.900 110.427 M260.000 109.787 C 260.000 109.897,260.900 110.443,262.000 111.000 C 263.100 111.557,264.000 111.923,264.000 111.813 C 264.000 111.703,263.100 111.157,262.000 110.600 C 260.900 110.043,260.000 109.677,260.000 109.787 M295.200 109.787 C 295.200 109.897,296.100 110.443,297.200 111.000 C 298.300 111.557,299.200 111.923,299.200 111.813 C 299.200 111.703,298.300 111.157,297.200 110.600 C 296.100 110.043,295.200 109.677,295.200 109.787 M164.700 112.229 C 163.205 113.040,163.296 113.378,164.800 112.600 C 165.460 112.259,166.000 111.894,166.000 111.790 C 166.000 111.532,165.957 111.547,164.700 112.229 M98.300 113.026 C 97.255 113.570,96.400 114.105,96.400 114.214 C 96.400 114.324,97.300 113.957,98.400 113.400 C 99.500 112.843,100.400 112.300,100.400 112.193 C 100.400 111.929,100.436 111.914,98.300 113.026 M134.297 112.766 C 132.485 113.928,132.486 114.156,134.300 113.241 C 135.235 112.770,136.000 112.297,136.000 112.192 C 136.000 111.849,135.423 112.044,134.297 112.766 M145.100 113.026 C 144.055 113.570,143.200 114.105,143.200 114.214 C 143.200 114.324,144.100 113.957,145.200 113.400 C 146.300 112.843,147.200 112.300,147.200 112.193 C 147.200 111.929,147.236 111.914,145.100 113.026 M161.100 114.226 C 160.055 114.770,159.200 115.305,159.200 115.414 C 159.200 115.524,160.100 115.157,161.200 114.600 C 162.300 114.043,163.200 113.500,163.200 113.393 C 163.200 113.129,163.236 113.114,161.100 114.226 M266.400 113.384 C 266.400 113.494,267.120 113.951,268.000 114.400 C 268.880 114.849,269.600 115.126,269.600 115.016 C 269.600 114.906,268.880 114.449,268.000 114.000 C 267.120 113.551,266.400 113.274,266.400 113.384 M301.600 113.387 C 301.600 113.497,302.500 114.043,303.600 114.600 C 304.700 115.157,305.600 115.523,305.600 115.413 C 305.600 115.303,304.700 114.757,303.600 114.200 C 302.500 113.643,301.600 113.277,301.600 113.387 M129.900 115.227 C 129.075 115.663,128.400 116.108,128.400 116.218 C 128.400 116.327,129.120 116.049,130.000 115.600 C 130.880 115.151,131.600 114.697,131.600 114.592 C 131.600 114.330,131.597 114.331,129.900 115.227 M139.900 115.829 C 138.405 116.640,138.496 116.978,140.000 116.200 C 140.660 115.859,141.200 115.494,141.200 115.390 C 141.200 115.132,141.157 115.147,139.900 115.829 M270.000 115.387 C 270.000 115.497,270.900 116.043,272.000 116.600 C 273.100 117.157,274.000 117.523,274.000 117.413 C 274.000 117.303,273.100 116.757,272.000 116.200 C 270.900 115.643,270.000 115.277,270.000 115.387 M157.062 116.447 C 156.216 116.893,155.609 117.342,155.712 117.445 C 155.902 117.636,158.800 116.055,158.800 115.760 C 158.800 115.534,158.771 115.545,157.062 116.447 M125.900 117.426 C 124.855 117.970,124.000 118.505,124.000 118.614 C 124.000 118.724,124.900 118.357,126.000 117.800 C 127.100 117.243,128.000 116.700,128.000 116.593 C 128.000 116.329,128.036 116.314,125.900 117.426 M136.662 117.647 C 135.816 118.093,135.209 118.542,135.312 118.645 C 135.502 118.836,138.400 117.255,138.400 116.960 C 138.400 116.734,138.371 116.745,136.662 117.647 M89.100 118.229 C 87.605 119.040,87.696 119.378,89.200 118.600 C 89.860 118.259,90.400 117.894,90.400 117.790 C 90.400 117.532,90.357 117.547,89.100 118.229 M151.400 119.657 C 149.420 120.776,147.620 121.877,147.400 122.105 C 147.180 122.333,148.080 121.924,149.400 121.196 C 153.556 118.902,155.200 117.929,155.200 117.762 C 155.200 117.510,155.208 117.506,151.400 119.657 M274.600 117.884 C 274.820 118.109,276.260 118.975,277.800 119.809 C 279.340 120.643,280.420 121.141,280.200 120.916 C 279.980 120.691,278.540 119.825,277.000 118.991 C 275.460 118.157,274.380 117.659,274.600 117.884 M311.600 118.987 C 311.600 119.097,312.500 119.643,313.600 120.200 C 314.700 120.757,315.600 121.123,315.600 121.013 C 315.600 120.903,314.700 120.357,313.600 119.800 C 312.500 119.243,311.600 118.877,311.600 118.987 M85.900 120.027 C 85.075 120.463,84.400 120.908,84.400 121.018 C 84.400 121.127,85.120 120.849,86.000 120.400 C 86.880 119.951,87.600 119.497,87.600 119.392 C 87.600 119.130,87.597 119.131,85.900 120.027 M119.500 121.026 C 118.455 121.570,117.600 122.105,117.600 122.214 C 117.600 122.324,118.500 121.957,119.600 121.400 C 120.700 120.843,121.600 120.300,121.600 120.193 C 121.600 119.929,121.636 119.914,119.500 121.026 M131.100 120.827 C 130.275 121.263,129.600 121.708,129.600 121.818 C 129.600 121.927,130.320 121.649,131.200 121.200 C 132.080 120.751,132.800 120.297,132.800 120.192 C 132.800 119.930,132.797 119.931,131.100 120.827 M81.900 122.226 C 80.855 122.770,80.000 123.305,80.000 123.414 C 80.000 123.524,80.900 123.157,82.000 122.600 C 83.100 122.043,84.000 121.500,84.000 121.393 C 84.000 121.129,84.036 121.114,81.900 122.226 M280.800 121.335 C 280.800 121.606,283.674 123.259,283.846 123.087 C 283.926 123.008,283.273 122.539,282.396 122.046 C 281.518 121.552,280.800 121.233,280.800 121.335 M127.900 122.629 C 126.405 123.440,126.496 123.778,128.000 123.000 C 128.660 122.659,129.200 122.294,129.200 122.190 C 129.200 121.932,129.157 121.947,127.900 122.629 M145.100 123.227 C 144.275 123.663,143.600 124.108,143.600 124.218 C 143.600 124.327,144.320 124.049,145.200 123.600 C 146.080 123.151,146.800 122.697,146.800 122.592 C 146.800 122.330,146.797 122.331,145.100 123.227 M318.400 122.822 C 319.433 123.526,322.000 124.825,322.000 124.642 C 322.000 124.433,318.405 122.397,318.050 122.406 C 317.912 122.409,318.070 122.596,318.400 122.822 M78.500 124.088 L 77.600 124.522 77.600 199.412 C 77.600 277.345,77.585 276.549,79.067 275.066 C 79.203 274.930,79.019 274.705,78.657 274.567 C 78.051 274.334,78.000 268.537,78.000 199.606 L 78.000 124.898 78.900 124.270 C 79.944 123.542,79.784 123.469,78.500 124.088 M141.100 125.426 C 140.055 125.970,139.200 126.505,139.200 126.614 C 139.200 126.724,140.100 126.357,141.200 125.800 C 142.300 125.243,143.200 124.700,143.200 124.593 C 143.200 124.329,143.236 124.314,141.100 125.426 M286.400 124.587 C 286.400 124.697,287.300 125.243,288.400 125.800 C 289.500 126.357,290.400 126.723,290.400 126.613 C 290.400 126.503,289.500 125.957,288.400 125.400 C 287.300 124.843,286.400 124.477,286.400 124.587 M193.475 125.058 C 193.324 125.209,193.239 128.858,193.287 133.167 L 193.374 141.000 193.587 133.200 L 193.800 125.400 200.892 125.291 L 207.984 125.182 208.092 133.491 L 208.200 141.800 209.903 141.839 L 211.606 141.878 210.011 141.717 L 208.416 141.555 208.308 133.277 L 208.200 125.000 200.975 124.891 C 197.002 124.831,193.627 124.906,193.475 125.058 M322.128 127.600 C 322.128 129.030,322.201 129.615,322.289 128.900 C 322.378 128.185,322.378 127.015,322.289 126.300 C 322.201 125.585,322.128 126.170,322.128 127.600 M107.500 127.826 C 106.455 128.370,105.600 128.905,105.600 129.014 C 105.600 129.124,106.500 128.757,107.600 128.200 C 108.700 127.643,109.600 127.100,109.600 126.993 C 109.600 126.729,109.636 126.714,107.500 127.826 M135.100 128.827 C 134.275 129.263,133.600 129.708,133.600 129.818 C 133.600 129.927,134.320 129.649,135.200 129.200 C 136.080 128.751,136.800 128.297,136.800 128.192 C 136.800 127.930,136.797 127.931,135.100 128.827 M292.800 128.184 C 292.800 128.294,293.520 128.751,294.400 129.200 C 295.280 129.649,296.000 129.926,296.000 129.816 C 296.000 129.706,295.280 129.249,294.400 128.800 C 293.520 128.351,292.800 128.074,292.800 128.184 M103.100 130.226 C 102.055 130.770,101.200 131.305,101.200 131.414 C 101.200 131.524,102.100 131.157,103.200 130.600 C 104.300 130.043,105.200 129.500,105.200 129.393 C 105.200 129.129,105.236 129.114,103.100 130.226 M296.400 130.187 C 296.400 130.297,297.300 130.843,298.400 131.400 C 299.500 131.957,300.400 132.323,300.400 132.213 C 300.400 132.103,299.500 131.557,298.400 131.000 C 297.300 130.443,296.400 130.077,296.400 130.187 M130.662 131.247 C 129.816 131.693,129.209 132.142,129.312 132.245 C 129.502 132.436,132.400 130.855,132.400 130.560 C 132.400 130.334,132.371 130.345,130.662 131.247 M322.177 141.800 C 322.177 148.180,322.232 150.734,322.299 147.476 C 322.367 144.217,322.366 138.997,322.299 135.876 C 322.231 132.754,322.176 135.420,322.177 141.800 M125.000 134.457 C 123.020 135.576,121.220 136.677,121.000 136.905 C 120.780 137.133,121.680 136.724,123.000 135.996 C 127.156 133.702,128.800 132.729,128.800 132.562 C 128.800 132.310,128.808 132.306,125.000 134.457 M300.800 132.548 C 300.800 132.645,301.610 133.199,302.600 133.779 L 304.400 134.834 304.400 199.473 C 304.400 260.551,304.361 264.143,303.700 264.678 C 303.068 265.189,303.088 265.202,303.900 264.808 L 304.800 264.372 304.800 199.613 L 304.800 134.854 303.700 134.084 C 302.331 133.125,300.800 132.314,300.800 132.548 M95.899 134.229 L 94.798 134.827 94.899 199.465 L 95.000 264.102 96.000 264.683 C 96.996 265.262,96.996 265.261,96.100 264.583 L 95.200 263.902 95.200 199.351 C 95.200 163.848,95.346 134.800,95.524 134.800 C 95.701 134.800,96.196 134.536,96.624 134.213 C 97.619 133.460,97.304 133.467,95.899 134.229 M111.630 136.600 C 112.124 137.480,112.700 138.380,112.910 138.600 C 113.509 139.228,112.139 136.694,111.396 135.800 C 111.030 135.360,111.135 135.720,111.630 136.600 M118.700 138.027 C 117.875 138.463,117.200 138.908,117.200 139.018 C 117.200 139.127,117.920 138.849,118.800 138.400 C 119.680 137.951,120.400 137.497,120.400 137.392 C 120.400 137.130,120.397 137.131,118.700 138.027 M189.000 142.403 C 188.485 142.626,188.913 142.667,190.200 142.518 C 191.300 142.391,192.275 142.223,192.367 142.144 C 192.714 141.845,189.764 142.072,189.000 142.403 M212.433 142.150 C 212.525 142.232,213.680 142.400,215.000 142.523 C 216.578 142.670,216.989 142.635,216.200 142.420 C 214.966 142.085,212.136 141.882,212.433 142.150 M185.656 143.259 C 184.917 143.472,184.390 143.723,184.485 143.818 C 184.580 143.913,185.454 143.740,186.429 143.435 C 188.418 142.811,187.745 142.658,185.656 143.259 M220.033 143.347 C 220.125 143.428,220.920 143.604,221.800 143.738 C 222.915 143.907,223.158 143.871,222.600 143.619 C 221.832 143.271,219.690 143.044,220.033 143.347 M181.656 144.459 C 180.917 144.672,180.387 144.920,180.479 145.012 C 180.681 145.214,183.600 144.437,183.600 144.181 C 183.600 143.946,183.282 143.991,181.656 144.459 M224.600 144.346 C 225.040 144.539,226.030 144.810,226.800 144.950 C 227.761 145.124,227.949 145.094,227.400 144.854 C 226.960 144.661,225.970 144.390,225.200 144.250 C 224.239 144.076,224.051 144.106,224.600 144.346 M178.500 145.612 C 177.161 146.151,177.411 146.424,178.800 145.940 C 179.460 145.710,180.000 145.449,180.000 145.361 C 180.000 145.124,179.513 145.205,178.500 145.612 M229.000 145.600 C 229.440 145.789,230.070 145.944,230.400 145.944 C 230.778 145.944,230.704 145.817,230.200 145.600 C 229.760 145.411,229.130 145.256,228.800 145.256 C 228.422 145.256,228.496 145.383,229.000 145.600 M235.498 148.058 C 235.750 148.310,235.876 149.075,235.778 149.758 L 235.599 151.000 235.998 149.800 C 236.446 148.450,236.266 147.600,235.533 147.600 C 235.162 147.600,235.154 147.714,235.498 148.058 M167.962 152.709 C 166.977 153.749,165.819 155.050,165.388 155.600 C 164.957 156.150,165.810 155.347,167.285 153.816 C 168.759 152.285,169.918 150.984,169.859 150.925 C 169.800 150.867,168.946 151.669,167.962 152.709 M290.400 151.100 C 290.400 151.265,292.380 151.400,294.800 151.400 C 297.220 151.400,299.200 151.265,299.200 151.100 C 299.200 150.935,297.220 150.800,294.800 150.800 C 292.380 150.800,290.400 150.935,290.400 151.100 M298.898 199.926 L 298.800 248.051 294.637 247.926 C 292.347 247.857,290.558 247.935,290.661 248.100 C 290.997 248.641,298.804 248.454,299.015 247.900 C 299.120 247.625,299.159 225.890,299.101 199.600 L 298.997 151.800 298.898 199.926 M234.640 154.840 C 234.493 155.757,234.452 156.585,234.547 156.680 C 234.642 156.776,234.846 156.110,235.000 155.200 C 235.154 154.290,235.196 153.462,235.093 153.360 C 234.990 153.257,234.787 153.923,234.640 154.840 M200.900 159.491 C 201.725 159.578,203.075 159.578,203.900 159.491 C 204.725 159.405,204.050 159.334,202.400 159.334 C 200.750 159.334,200.075 159.405,200.900 159.491 M233.422 160.622 C 233.272 161.425,233.228 162.162,233.326 162.260 C 233.424 162.357,233.627 161.781,233.778 160.978 C 233.928 160.175,233.972 159.438,233.874 159.340 C 233.776 159.243,233.573 159.819,233.422 160.622 M196.700 159.882 C 197.195 159.978,198.005 159.978,198.500 159.882 C 198.995 159.787,198.590 159.709,197.600 159.709 C 196.610 159.709,196.205 159.787,196.700 159.882 M206.505 159.887 C 207.114 159.979,208.014 159.977,208.505 159.882 C 208.997 159.787,208.500 159.711,207.400 159.714 C 206.300 159.717,205.897 159.795,206.505 159.887 M192.800 160.400 C 192.008 160.654,191.967 160.720,192.600 160.720 C 193.040 160.720,193.850 160.576,194.400 160.400 C 195.192 160.146,195.233 160.080,194.600 160.080 C 194.160 160.080,193.350 160.224,192.800 160.400 M211.400 160.400 C 212.060 160.568,213.140 160.706,213.800 160.707 C 214.809 160.708,214.745 160.655,213.400 160.377 C 211.374 159.958,209.737 159.977,211.400 160.400 M322.183 177.800 C 322.183 187.260,322.236 191.073,322.300 186.273 C 322.364 181.473,322.363 173.733,322.299 169.073 C 322.236 164.413,322.183 168.340,322.183 177.800 M161.577 162.261 C 161.355 162.844,161.232 163.497,161.304 163.712 C 161.376 163.927,161.635 163.450,161.880 162.651 C 162.394 160.974,162.174 160.690,161.577 162.261 M188.900 161.612 C 187.561 162.151,187.811 162.424,189.200 161.940 C 189.860 161.710,190.400 161.449,190.400 161.361 C 190.400 161.124,189.913 161.205,188.900 161.612 M218.000 161.600 C 218.550 161.776,219.360 161.920,219.800 161.920 C 220.433 161.920,220.392 161.854,219.600 161.600 C 219.050 161.424,218.240 161.280,217.800 161.280 C 217.167 161.280,217.208 161.346,218.000 161.600 M290.169 169.200 C 290.169 173.710,290.227 175.555,290.298 173.300 C 290.370 171.045,290.370 167.355,290.298 165.100 C 290.227 162.845,290.169 164.690,290.169 169.200 M185.790 163.662 C 185.000 164.356,184.003 165.609,183.576 166.446 C 182.382 168.787,182.663 168.851,183.988 166.541 C 184.638 165.409,185.761 164.016,186.485 163.445 C 187.208 162.875,187.671 162.407,187.514 162.404 C 187.357 162.402,186.581 162.968,185.790 163.662 M222.600 162.800 C 223.040 162.989,223.670 163.144,224.000 163.144 C 224.378 163.144,224.304 163.017,223.800 162.800 C 223.360 162.611,222.730 162.456,222.400 162.456 C 222.022 162.456,222.096 162.583,222.600 162.800 M225.800 163.814 C 226.460 164.117,227.270 164.358,227.600 164.352 C 227.930 164.345,227.570 164.097,226.800 163.800 C 224.974 163.097,224.255 163.107,225.800 163.814 M160.656 165.284 C 160.521 165.788,160.427 166.560,160.446 167.000 C 160.465 167.440,160.645 167.098,160.846 166.240 C 161.236 164.578,161.070 163.740,160.656 165.284 M229.800 165.200 C 231.866 166.156,232.802 166.188,232.794 165.300 C 232.789 164.739,232.718 164.711,232.434 165.159 C 232.133 165.634,231.829 165.619,230.432 165.059 C 228.226 164.177,227.796 164.272,229.800 165.200 M182.093 171.800 C 182.094 172.460,182.232 173.540,182.400 174.200 C 182.823 175.863,182.842 174.226,182.423 172.200 C 182.145 170.855,182.092 170.791,182.093 171.800 M159.709 173.600 C 159.709 174.590,159.787 174.995,159.882 174.500 C 159.978 174.005,159.978 173.195,159.882 172.700 C 159.787 172.205,159.709 172.610,159.709 173.600 M160.252 179.765 C 160.374 181.066,160.634 182.506,160.830 182.965 C 161.229 183.898,161.056 182.389,160.400 179.200 C 160.054 177.519,160.044 177.556,160.252 179.765 M185.000 179.148 C 185.660 179.877,186.740 180.846,187.400 181.301 C 188.818 182.280,188.498 181.934,185.800 179.574 C 184.322 178.281,184.113 178.170,185.000 179.148 M190.400 183.031 C 190.400 183.301,192.478 184.056,192.676 183.857 C 192.767 183.767,192.292 183.501,191.620 183.267 C 190.949 183.033,190.400 182.927,190.400 183.031 M200.600 186.739 C 201.837 187.268,203.910 187.677,203.200 187.251 C 202.870 187.054,201.970 186.780,201.200 186.644 C 200.256 186.477,200.060 186.508,200.600 186.739 M208.400 189.044 C 210.710 189.800,214.283 190.958,216.341 191.616 C 218.398 192.275,221.098 193.280,222.341 193.851 C 223.583 194.422,225.021 195.050,225.536 195.248 C 232.027 197.742,238.250 205.052,240.475 212.800 C 241.536 216.493,241.770 226.971,240.859 230.000 C 237.800 240.171,233.284 245.848,225.006 249.929 C 219.684 252.553,217.720 253.194,211.400 254.367 L 207.800 255.035 207.691 262.993 C 207.632 267.370,207.686 270.848,207.811 270.722 C 207.937 270.596,208.040 267.153,208.040 263.071 L 208.040 255.648 210.320 255.181 C 221.872 252.814,230.040 248.929,234.420 243.716 C 240.025 237.045,241.988 231.464,241.988 222.200 C 241.988 203.760,234.442 196.383,207.254 188.243 C 203.302 187.059,204.150 187.652,208.400 189.044 M165.609 192.328 C 167.477 194.807,174.834 200.500,175.417 199.917 C 175.513 199.821,174.828 199.323,173.896 198.811 C 171.455 197.469,168.914 195.435,166.454 192.853 C 164.603 190.910,164.487 190.838,165.609 192.328 M322.167 206.400 C 322.167 210.690,322.226 212.445,322.298 210.300 C 322.370 208.155,322.370 204.645,322.298 202.500 C 322.226 200.355,322.167 202.110,322.167 206.400 M178.400 201.400 C 178.400 201.606,180.487 202.525,182.035 203.002 C 182.566 203.166,182.910 203.202,182.800 203.083 C 182.493 202.751,178.400 201.186,178.400 201.400 M183.600 203.533 C 183.930 203.736,184.650 204.024,185.200 204.171 C 185.895 204.357,186.017 204.325,185.600 204.067 C 185.270 203.864,184.550 203.576,184.000 203.429 C 183.305 203.243,183.183 203.275,183.600 203.533 M191.200 206.200 C 191.970 206.497,192.870 206.739,193.200 206.739 C 193.530 206.739,193.170 206.497,192.400 206.200 C 191.630 205.903,190.730 205.661,190.400 205.661 C 190.070 205.661,190.430 205.903,191.200 206.200 M195.800 207.600 C 196.240 207.789,196.870 207.944,197.200 207.944 C 197.578 207.944,197.504 207.817,197.000 207.600 C 196.560 207.411,195.930 207.256,195.600 207.256 C 195.222 207.256,195.296 207.383,195.800 207.600 M198.400 208.341 C 198.730 208.534,199.540 208.809,200.200 208.952 C 200.968 209.118,201.184 209.084,200.800 208.859 C 200.470 208.666,199.660 208.391,199.000 208.248 C 198.232 208.082,198.016 208.116,198.400 208.341 M202.200 209.600 C 202.640 209.789,203.270 209.944,203.600 209.944 C 203.978 209.944,203.904 209.817,203.400 209.600 C 202.960 209.411,202.330 209.256,202.000 209.256 C 201.622 209.256,201.696 209.383,202.200 209.600 M206.000 210.760 C 206.330 210.995,206.841 211.191,207.135 211.194 C 208.398 211.208,215.340 214.940,216.777 216.377 C 221.005 220.605,221.014 228.415,216.798 232.467 C 210.708 238.321,190.597 238.489,174.800 232.820 C 171.896 231.777,167.965 230.201,166.161 229.356 C 163.032 227.889,163.217 227.726,162.446 232.600 C 162.006 235.377,161.032 240.840,160.422 243.955 C 159.734 247.466,159.806 247.726,161.700 248.563 C 170.224 252.330,180.002 254.831,188.600 255.445 C 193.440 255.790,193.200 255.619,193.200 258.744 C 193.200 260.245,193.318 263.936,193.462 266.946 L 193.725 272.418 200.929 272.309 C 206.378 272.227,208.159 272.076,208.237 271.690 C 208.294 271.410,208.249 271.365,208.137 271.590 C 208.009 271.846,205.328 272.000,200.975 272.000 L 194.016 272.000 193.908 263.700 L 193.800 255.400 190.000 255.117 C 181.074 254.453,172.847 252.490,163.893 248.890 L 160.386 247.480 160.624 246.040 C 161.263 242.179,162.111 237.530,162.627 235.051 C 162.942 233.539,163.203 231.739,163.206 231.051 C 163.217 228.919,163.665 228.613,165.446 229.521 C 183.485 238.718,209.434 240.257,217.321 232.598 C 219.642 230.344,220.200 228.754,220.200 224.400 C 220.200 218.381,218.414 215.868,211.815 212.602 C 208.472 210.947,204.494 209.687,206.000 210.760 M322.178 230.200 C 322.178 237.020,322.232 239.866,322.299 236.525 C 322.366 233.184,322.366 227.604,322.299 224.125 C 322.233 220.646,322.178 223.380,322.178 230.200 M113.819 259.100 C 113.615 259.637,113.663 259.691,114.025 259.331 C 114.285 259.073,114.791 258.955,115.149 259.069 C 115.712 259.247,115.719 259.217,115.200 258.844 C 114.370 258.246,114.127 258.292,113.819 259.100 M111.447 263.229 C 110.651 264.564,110.000 265.867,110.000 266.122 C 110.000 266.569,110.660 265.519,112.404 262.300 C 113.691 259.924,113.038 260.557,111.447 263.229 M121.200 262.152 C 121.200 262.453,124.095 264.038,124.289 263.844 C 124.393 263.741,123.740 263.280,122.839 262.820 C 121.937 262.360,121.200 262.060,121.200 262.152 M126.800 265.384 C 126.800 265.494,127.520 265.951,128.400 266.400 C 129.280 266.849,130.000 267.126,130.000 267.016 C 130.000 266.906,129.280 266.449,128.400 266.000 C 127.520 265.551,126.800 265.274,126.800 265.384 M298.700 267.227 C 297.875 267.663,297.200 268.108,297.200 268.218 C 297.200 268.327,297.920 268.049,298.800 267.600 C 299.680 267.151,300.400 266.697,300.400 266.592 C 300.400 266.330,300.397 266.331,298.700 267.227 M130.400 267.379 C 130.400 267.489,130.940 267.859,131.600 268.200 C 132.260 268.541,132.800 268.731,132.800 268.621 C 132.800 268.511,132.260 268.141,131.600 267.800 C 130.940 267.459,130.400 267.269,130.400 267.379 M104.000 268.984 C 104.000 269.094,104.720 269.551,105.600 270.000 C 106.480 270.449,107.200 270.726,107.200 270.616 C 107.200 270.506,106.480 270.049,105.600 269.600 C 104.720 269.151,104.000 268.874,104.000 268.984 M118.800 270.987 C 118.800 271.097,119.700 271.643,120.800 272.200 C 121.900 272.757,122.800 273.123,122.800 273.013 C 122.800 272.903,121.900 272.357,120.800 271.800 C 119.700 271.243,118.800 270.877,118.800 270.987 M136.800 270.987 C 136.800 271.097,137.700 271.643,138.800 272.200 C 139.900 272.757,140.800 273.123,140.800 273.013 C 140.800 272.903,139.900 272.357,138.800 271.800 C 137.700 271.243,136.800 270.877,136.800 270.987 M108.400 271.384 C 108.400 271.494,109.120 271.951,110.000 272.400 C 110.880 272.849,111.600 273.126,111.600 273.016 C 111.600 272.906,110.880 272.449,110.000 272.000 C 109.120 271.551,108.400 271.274,108.400 271.384 M289.100 272.629 C 287.605 273.440,287.696 273.778,289.200 273.000 C 289.860 272.659,290.400 272.294,290.400 272.190 C 290.400 271.932,290.357 271.947,289.100 272.629 M123.200 273.335 C 123.200 273.606,126.074 275.259,126.246 275.087 C 126.326 275.008,125.673 274.539,124.796 274.046 C 123.918 273.552,123.200 273.233,123.200 273.335 M285.500 274.629 C 284.005 275.440,284.096 275.778,285.600 275.000 C 286.260 274.659,286.800 274.294,286.800 274.190 C 286.800 273.932,286.757 273.947,285.500 274.629 M143.600 274.822 C 144.633 275.526,147.200 276.825,147.200 276.642 C 147.200 276.433,143.605 274.397,143.250 274.406 C 143.112 274.409,143.270 274.596,143.600 274.822 M79.600 275.387 C 79.600 275.497,80.500 276.043,81.600 276.600 C 82.700 277.157,83.600 277.523,83.600 277.413 C 83.600 277.303,82.700 276.757,81.600 276.200 C 80.500 275.643,79.600 275.277,79.600 275.387 M126.800 275.379 C 126.800 275.489,127.340 275.859,128.000 276.200 C 128.660 276.541,129.200 276.731,129.200 276.621 C 129.200 276.511,128.660 276.141,128.000 275.800 C 127.340 275.459,126.800 275.269,126.800 275.379 M318.700 275.829 C 317.205 276.640,317.296 276.978,318.800 276.200 C 319.460 275.859,320.000 275.494,320.000 275.390 C 320.000 275.132,319.957 275.147,318.700 275.829 M118.000 276.992 C 118.000 277.097,118.720 277.551,119.600 278.000 C 121.583 279.012,121.700 278.774,119.777 277.640 C 118.312 276.775,118.000 276.661,118.000 276.992 M129.600 276.984 C 129.600 277.094,130.320 277.551,131.200 278.000 C 132.080 278.449,132.800 278.726,132.800 278.616 C 132.800 278.506,132.080 278.049,131.200 277.600 C 130.320 277.151,129.600 276.874,129.600 276.984 M315.500 277.627 C 314.675 278.063,314.000 278.508,314.000 278.618 C 314.000 278.727,314.720 278.449,315.600 278.000 C 316.480 277.551,317.200 277.097,317.200 276.992 C 317.200 276.730,317.197 276.731,315.500 277.627 M84.000 277.787 C 84.000 277.897,84.900 278.443,86.000 279.000 C 87.100 279.557,88.000 279.923,88.000 279.813 C 88.000 279.703,87.100 279.157,86.000 278.600 C 84.900 278.043,84.000 277.677,84.000 277.787 M279.100 278.229 C 277.605 279.040,277.696 279.378,279.200 278.600 C 279.860 278.259,280.400 277.894,280.400 277.790 C 280.400 277.532,280.357 277.547,279.100 278.229 M149.600 278.184 C 149.600 278.294,150.320 278.751,151.200 279.200 C 152.080 279.649,152.800 279.926,152.800 279.816 C 152.800 279.706,152.080 279.249,151.200 278.800 C 150.320 278.351,149.600 278.074,149.600 278.184 M121.600 278.987 C 121.600 279.097,122.500 279.643,123.600 280.200 C 124.700 280.757,125.600 281.123,125.600 281.013 C 125.600 280.903,124.700 280.357,123.600 279.800 C 122.500 279.243,121.600 278.877,121.600 278.987 M310.900 280.229 C 309.525 281.009,308.400 281.743,308.400 281.861 C 308.400 282.099,312.776 279.722,313.380 279.156 C 314.057 278.521,313.448 278.785,310.900 280.229 M275.900 280.027 C 275.075 280.463,274.400 280.908,274.400 281.018 C 274.400 281.127,275.120 280.849,276.000 280.400 C 276.880 279.951,277.600 279.497,277.600 279.392 C 277.600 279.130,277.597 279.131,275.900 280.027 M135.200 280.184 C 135.200 280.294,135.920 280.751,136.800 281.200 C 137.680 281.649,138.400 281.926,138.400 281.816 C 138.400 281.706,137.680 281.249,136.800 280.800 C 135.920 280.351,135.200 280.074,135.200 280.184 M153.200 280.184 C 153.200 280.294,153.920 280.751,154.800 281.200 C 155.680 281.649,156.400 281.926,156.400 281.816 C 156.400 281.706,155.680 281.249,154.800 280.800 C 153.920 280.351,153.200 280.074,153.200 280.184 M90.400 281.384 C 90.400 281.494,91.120 281.951,92.000 282.400 C 92.880 282.849,93.600 283.126,93.600 283.016 C 93.600 282.906,92.880 282.449,92.000 282.000 C 91.120 281.551,90.400 281.274,90.400 281.384 M156.800 282.179 C 156.800 282.289,157.340 282.659,158.000 283.000 C 158.660 283.341,159.200 283.531,159.200 283.421 C 159.200 283.311,158.660 282.941,158.000 282.600 C 157.340 282.259,156.800 282.069,156.800 282.179 M139.600 282.584 C 139.600 282.694,140.320 283.151,141.200 283.600 C 142.080 284.049,142.800 284.326,142.800 284.216 C 142.800 284.106,142.080 283.649,141.200 283.200 C 140.320 282.751,139.600 282.474,139.600 282.584 M305.462 283.247 C 304.616 283.693,304.009 284.142,304.112 284.245 C 304.302 284.436,307.200 282.855,307.200 282.560 C 307.200 282.334,307.171 282.345,305.462 283.247 M130.400 283.787 C 130.400 283.897,131.300 284.443,132.400 285.000 C 133.500 285.557,134.400 285.923,134.400 285.813 C 134.400 285.703,133.500 285.157,132.400 284.600 C 131.300 284.043,130.400 283.677,130.400 283.787 M143.200 284.587 C 143.200 284.697,144.100 285.243,145.200 285.800 C 146.300 286.357,147.200 286.723,147.200 286.613 C 147.200 286.503,146.300 285.957,145.200 285.400 C 144.100 284.843,143.200 284.477,143.200 284.587 M301.500 285.477 C 300.456 286.058,299.663 286.597,299.740 286.673 C 299.900 286.834,303.600 284.814,303.600 284.566 C 303.600 284.315,303.543 284.340,301.500 285.477 M265.897 285.566 C 264.085 286.728,264.086 286.956,265.900 286.041 C 266.835 285.570,267.600 285.097,267.600 284.992 C 267.600 284.649,267.023 284.844,265.897 285.566 M135.000 286.291 C 135.220 286.523,136.480 287.301,137.800 288.021 C 139.120 288.741,140.020 289.141,139.800 288.909 C 139.580 288.677,138.320 287.899,137.000 287.179 C 135.680 286.459,134.780 286.059,135.000 286.291 M147.600 286.987 C 147.600 287.097,148.500 287.643,149.600 288.200 C 150.700 288.757,151.600 289.123,151.600 289.013 C 151.600 288.903,150.700 288.357,149.600 287.800 C 148.500 287.243,147.600 286.877,147.600 286.987 M165.600 286.979 C 165.600 287.089,166.140 287.459,166.800 287.800 C 167.460 288.141,168.000 288.331,168.000 288.221 C 168.000 288.111,167.460 287.741,166.800 287.400 C 166.140 287.059,165.600 286.869,165.600 286.979 M261.900 287.826 C 260.855 288.370,260.000 288.905,260.000 289.014 C 260.000 289.124,260.900 288.757,262.000 288.200 C 263.100 287.643,264.000 287.100,264.000 286.993 C 264.000 286.729,264.036 286.714,261.900 287.826 M295.462 288.847 C 294.616 289.293,294.009 289.742,294.112 289.845 C 294.302 290.036,297.200 288.455,297.200 288.160 C 297.200 287.934,297.171 287.945,295.462 288.847 M168.400 288.579 C 168.400 288.689,168.940 289.059,169.600 289.400 C 170.260 289.741,170.800 289.931,170.800 289.821 C 170.800 289.711,170.260 289.341,169.600 289.000 C 168.940 288.659,168.400 288.469,168.400 288.579 M104.400 288.979 C 104.400 289.089,104.940 289.459,105.600 289.800 C 106.260 290.141,106.800 290.331,106.800 290.221 C 106.800 290.111,106.260 289.741,105.600 289.400 C 104.940 289.059,104.400 288.869,104.400 288.979 M257.862 290.047 C 257.016 290.493,256.409 290.942,256.512 291.045 C 256.702 291.236,259.600 289.655,259.600 289.360 C 259.600 289.134,259.571 289.145,257.862 290.047 M171.200 290.179 C 171.200 290.289,171.740 290.659,172.400 291.000 C 173.060 291.341,173.600 291.531,173.600 291.421 C 173.600 291.311,173.060 290.941,172.400 290.600 C 171.740 290.259,171.200 290.069,171.200 290.179 M291.461 291.046 C 290.394 291.601,289.602 292.135,289.700 292.233 C 289.887 292.421,293.600 290.452,293.600 290.166 C 293.600 289.932,293.610 289.928,291.461 291.046 M109.000 291.510 C 109.220 291.739,110.660 292.602,112.200 293.427 C 113.740 294.252,114.820 294.746,114.600 294.526 C 114.055 293.979,108.498 290.986,109.000 291.510 M144.000 291.379 C 144.000 291.489,144.540 291.859,145.200 292.200 C 145.860 292.541,146.400 292.731,146.400 292.621 C 146.400 292.511,145.860 292.141,145.200 291.800 C 144.540 291.459,144.000 291.269,144.000 291.379 M254.700 291.829 C 253.205 292.640,253.296 292.978,254.800 292.200 C 255.460 291.859,256.000 291.494,256.000 291.390 C 256.000 291.132,255.957 291.147,254.700 291.829 M174.000 291.792 C 174.000 291.897,174.720 292.351,175.600 292.800 C 177.583 293.812,177.700 293.574,175.777 292.440 C 174.312 291.575,174.000 291.461,174.000 291.792 M287.100 293.426 C 286.055 293.970,285.200 294.505,285.200 294.614 C 285.200 294.724,286.100 294.357,287.200 293.800 C 288.300 293.243,289.200 292.700,289.200 292.593 C 289.200 292.329,289.236 292.314,287.100 293.426 M146.800 292.984 C 146.800 293.094,147.520 293.551,148.400 294.000 C 149.280 294.449,150.000 294.726,150.000 294.616 C 150.000 294.506,149.280 294.049,148.400 293.600 C 147.520 293.151,146.800 292.874,146.800 292.984 M159.600 293.787 C 159.600 293.897,160.500 294.443,161.600 295.000 C 162.700 295.557,163.600 295.923,163.600 295.813 C 163.600 295.703,162.700 295.157,161.600 294.600 C 160.500 294.043,159.600 293.677,159.600 293.787 M115.200 294.952 C 115.200 295.253,118.095 296.838,118.289 296.644 C 118.393 296.541,117.740 296.080,116.839 295.620 C 115.937 295.160,115.200 294.860,115.200 294.952 M247.500 295.877 C 246.456 296.458,245.663 296.997,245.740 297.073 C 245.900 297.234,249.600 295.214,249.600 294.966 C 249.600 294.715,249.543 294.740,247.500 295.877 M151.200 295.384 C 151.200 295.494,151.920 295.951,152.800 296.400 C 153.680 296.849,154.400 297.126,154.400 297.016 C 154.400 296.906,153.680 296.449,152.800 296.000 C 151.920 295.551,151.200 295.274,151.200 295.384 M164.000 296.187 C 164.000 296.297,164.900 296.843,166.000 297.400 C 167.100 297.957,168.000 298.323,168.000 298.213 C 168.000 298.103,167.100 297.557,166.000 297.000 C 164.900 296.443,164.000 296.077,164.000 296.187 M281.100 296.827 C 280.275 297.263,279.600 297.708,279.600 297.818 C 279.600 297.927,280.320 297.649,281.200 297.200 C 282.080 296.751,282.800 296.297,282.800 296.192 C 282.800 295.930,282.797 295.931,281.100 296.827 M118.800 296.979 C 118.800 297.089,119.340 297.459,120.000 297.800 C 120.660 298.141,121.200 298.331,121.200 298.221 C 121.200 298.111,120.660 297.741,120.000 297.400 C 119.340 297.059,118.800 296.869,118.800 296.979 M155.000 297.484 C 155.220 297.709,156.660 298.575,158.200 299.409 C 159.740 300.243,160.820 300.741,160.600 300.516 C 160.380 300.291,158.940 299.425,157.400 298.591 C 155.860 297.757,154.780 297.259,155.000 297.484 M277.900 298.629 C 276.405 299.440,276.496 299.778,278.000 299.000 C 278.660 298.659,279.200 298.294,279.200 298.190 C 279.200 297.932,279.157 297.947,277.900 298.629 M241.111 299.360 C 239.016 300.605,238.684 301.063,240.600 300.065 C 242.605 299.020,243.519 298.403,243.000 298.444 C 242.780 298.461,241.930 298.874,241.111 299.360 M170.400 299.784 C 170.400 299.894,171.120 300.351,172.000 300.800 C 172.880 301.249,173.600 301.526,173.600 301.416 C 173.600 301.306,172.880 300.849,172.000 300.400 C 171.120 299.951,170.400 299.674,170.400 299.784 M125.200 300.541 C 125.200 300.808,128.890 302.843,129.063 302.671 C 129.140 302.593,128.303 302.039,127.202 301.440 C 126.101 300.840,125.200 300.436,125.200 300.541 M237.100 301.627 C 236.275 302.063,235.600 302.508,235.600 302.618 C 235.600 302.727,236.320 302.449,237.200 302.000 C 238.080 301.551,238.800 301.097,238.800 300.992 C 238.800 300.730,238.797 300.731,237.100 301.627 M270.700 302.626 C 269.655 303.170,268.800 303.705,268.800 303.814 C 268.800 303.924,269.700 303.557,270.800 303.000 C 271.900 302.443,272.800 301.900,272.800 301.793 C 272.800 301.529,272.836 301.514,270.700 302.626 M163.200 302.184 C 163.200 302.294,163.920 302.751,164.800 303.200 C 165.680 303.649,166.400 303.926,166.400 303.816 C 166.400 303.706,165.680 303.249,164.800 302.800 C 163.920 302.351,163.200 302.074,163.200 302.184 M189.400 304.000 C 188.843 305.100,188.477 306.000,188.587 306.000 C 188.697 306.000,189.243 305.100,189.800 304.000 C 190.357 302.900,190.723 302.000,190.613 302.000 C 190.503 302.000,189.957 302.900,189.400 304.000 M176.000 302.935 C 176.000 303.206,178.874 304.859,179.046 304.687 C 179.126 304.608,178.473 304.139,177.596 303.646 C 176.718 303.152,176.000 302.833,176.000 302.935 M131.600 304.193 C 131.600 304.300,132.500 304.843,133.600 305.400 C 136.115 306.675,136.221 306.416,133.750 305.034 C 131.827 303.960,131.600 303.871,131.600 304.193 M166.800 304.184 C 166.800 304.294,167.520 304.751,168.400 305.200 C 169.280 305.649,170.000 305.926,170.000 305.816 C 170.000 305.706,169.280 305.249,168.400 304.800 C 167.520 304.351,166.800 304.074,166.800 304.184 M231.111 304.960 C 229.016 306.205,228.684 306.663,230.600 305.665 C 232.605 304.620,233.519 304.003,233.000 304.044 C 232.780 304.061,231.930 304.474,231.111 304.960 M266.700 304.827 C 265.875 305.263,265.200 305.708,265.200 305.818 C 265.200 305.927,265.920 305.649,266.800 305.200 C 267.680 304.751,268.400 304.297,268.400 304.192 C 268.400 303.930,268.397 303.931,266.700 304.827 M179.600 304.979 C 179.600 305.089,180.140 305.459,180.800 305.800 C 181.460 306.141,182.000 306.331,182.000 306.221 C 182.000 306.111,181.460 305.741,180.800 305.400 C 180.140 305.059,179.600 304.869,179.600 304.979 M170.400 306.179 C 170.400 306.289,170.940 306.659,171.600 307.000 C 172.260 307.341,172.800 307.531,172.800 307.421 C 172.800 307.311,172.260 306.941,171.600 306.600 C 170.940 306.259,170.400 306.069,170.400 306.179 M263.500 306.629 C 262.005 307.440,262.096 307.778,263.600 307.000 C 264.260 306.659,264.800 306.294,264.800 306.190 C 264.800 305.932,264.757 305.947,263.500 306.629 M136.000 306.552 C 136.000 306.853,138.895 308.438,139.089 308.244 C 139.193 308.141,138.540 307.680,137.639 307.220 C 136.737 306.760,136.000 306.460,136.000 306.552 M174.800 308.579 C 174.800 308.689,175.340 309.059,176.000 309.400 C 176.660 309.741,177.200 309.931,177.200 309.821 C 177.200 309.711,176.660 309.341,176.000 309.000 C 175.340 308.659,174.800 308.469,174.800 308.579 M222.299 309.951 C 220.813 310.786,219.463 311.619,219.299 311.803 C 218.924 312.222,224.461 309.259,224.980 308.763 C 225.627 308.145,225.097 308.379,222.299 309.951 M141.600 309.787 C 141.600 309.897,142.500 310.443,143.600 311.000 C 144.700 311.557,145.600 311.923,145.600 311.813 C 145.600 311.703,144.700 311.157,143.600 310.600 C 142.500 310.043,141.600 309.677,141.600 309.787 M256.300 310.626 C 255.255 311.170,254.400 311.705,254.400 311.814 C 254.400 311.924,255.300 311.557,256.400 311.000 C 257.500 310.443,258.400 309.900,258.400 309.793 C 258.400 309.529,258.436 309.514,256.300 310.626 M179.200 310.979 C 179.200 311.089,179.740 311.459,180.400 311.800 C 181.060 312.141,181.600 312.331,181.600 312.221 C 181.600 312.111,181.060 311.741,180.400 311.400 C 179.740 311.059,179.200 310.869,179.200 310.979 M146.000 312.184 C 146.000 312.294,146.720 312.751,147.600 313.200 C 148.480 313.649,149.200 313.926,149.200 313.816 C 149.200 313.706,148.480 313.249,147.600 312.800 C 146.720 312.351,146.000 312.074,146.000 312.184 M252.262 312.847 C 251.416 313.293,250.809 313.742,250.912 313.845 C 251.102 314.036,254.000 312.455,254.000 312.160 C 254.000 311.934,253.971 311.945,252.262 312.847 M182.000 312.550 C 182.000 312.644,182.641 313.099,183.424 313.561 C 184.207 314.023,184.736 314.220,184.599 313.998 C 184.331 313.564,182.000 312.266,182.000 312.550 M149.600 314.179 C 149.600 314.289,150.140 314.659,150.800 315.000 C 151.460 315.341,152.000 315.531,152.000 315.421 C 152.000 315.311,151.460 314.941,150.800 314.600 C 150.140 314.259,149.600 314.069,149.600 314.179 M249.100 314.629 C 247.605 315.440,247.696 315.778,249.200 315.000 C 249.860 314.659,250.400 314.294,250.400 314.190 C 250.400 313.932,250.357 313.947,249.100 314.629 M186.800 315.379 C 186.800 315.489,187.340 315.859,188.000 316.200 C 188.660 316.541,189.200 316.731,189.200 316.621 C 189.200 316.511,188.660 316.141,188.000 315.800 C 187.340 315.459,186.800 315.269,186.800 315.379 M210.697 316.366 C 209.098 317.391,208.803 317.806,210.200 317.066 C 211.876 316.177,212.671 315.608,212.200 315.635 C 211.980 315.648,211.304 315.977,210.697 316.366 M245.900 316.427 C 245.075 316.863,244.400 317.308,244.400 317.418 C 244.400 317.527,245.120 317.249,246.000 316.800 C 246.880 316.351,247.600 315.897,247.600 315.792 C 247.600 315.530,247.597 315.531,245.900 316.427 M156.200 317.901 C 156.420 318.135,157.860 319.002,159.400 319.827 C 160.940 320.652,162.020 321.142,161.800 320.917 C 161.256 320.359,155.697 317.365,156.200 317.901 M241.900 318.677 C 240.856 319.258,240.063 319.797,240.140 319.873 C 240.300 320.034,244.000 318.014,244.000 317.766 C 244.000 317.515,243.943 317.540,241.900 318.677 M206.300 318.827 C 205.475 319.263,204.800 319.708,204.800 319.818 C 204.800 319.927,205.520 319.649,206.400 319.200 C 207.280 318.751,208.000 318.297,208.000 318.192 C 208.000 317.930,207.997 317.931,206.300 318.827 M194.000 319.379 C 194.000 319.489,194.540 319.859,195.200 320.200 C 195.860 320.541,196.400 320.731,196.400 320.621 C 196.400 320.511,195.860 320.141,195.200 319.800 C 194.540 319.459,194.000 319.269,194.000 319.379 M202.500 321.026 C 201.565 321.587,200.800 322.140,200.800 322.255 C 200.800 322.471,203.499 320.938,204.180 320.336 C 204.867 319.728,204.227 319.991,202.500 321.026 M162.400 321.384 C 162.400 321.494,163.120 321.951,164.000 322.400 C 164.880 322.849,165.600 323.126,165.600 323.016 C 165.600 322.906,164.880 322.449,164.000 322.000 C 163.120 321.551,162.400 321.274,162.400 321.384 M235.900 322.027 C 235.075 322.463,234.400 322.908,234.400 323.018 C 234.400 323.127,235.120 322.849,236.000 322.400 C 236.880 321.951,237.600 321.497,237.600 321.392 C 237.600 321.130,237.597 321.131,235.900 322.027 M166.200 323.510 C 166.420 323.739,167.860 324.602,169.400 325.427 C 170.940 326.252,172.020 326.746,171.800 326.526 C 171.255 325.979,165.698 322.986,166.200 323.510 M231.900 324.277 C 230.856 324.858,230.063 325.397,230.140 325.473 C 230.300 325.634,234.000 323.614,234.000 323.366 C 234.000 323.115,233.943 323.140,231.900 324.277 M172.600 327.074 C 173.145 327.621,178.702 330.614,178.200 330.090 C 177.980 329.861,176.540 328.998,175.000 328.173 C 173.460 327.348,172.380 326.854,172.600 327.074 M225.500 327.826 C 224.455 328.370,223.600 328.905,223.600 329.014 C 223.600 329.124,224.500 328.757,225.600 328.200 C 226.700 327.643,227.600 327.100,227.600 326.993 C 227.600 326.729,227.636 326.714,225.500 327.826 M178.800 330.584 C 178.800 330.694,179.520 331.151,180.400 331.600 C 181.280 332.049,182.000 332.326,182.000 332.216 C 182.000 332.106,181.280 331.649,180.400 331.200 C 179.520 330.751,178.800 330.474,178.800 330.584 M219.500 331.227 C 218.675 331.663,218.000 332.108,218.000 332.218 C 218.000 332.327,218.720 332.049,219.600 331.600 C 220.480 331.151,221.200 330.697,221.200 330.592 C 221.200 330.330,221.197 330.331,219.500 331.227 M182.400 332.587 C 182.400 332.697,183.300 333.243,184.400 333.800 C 185.500 334.357,186.400 334.723,186.400 334.613 C 186.400 334.503,185.500 333.957,184.400 333.400 C 183.300 332.843,182.400 332.477,182.400 332.587 M215.500 333.426 C 214.455 333.970,213.600 334.505,213.600 334.614 C 213.600 334.724,214.500 334.357,215.600 333.800 C 216.700 333.243,217.600 332.700,217.600 332.593 C 217.600 332.329,217.636 332.314,215.500 333.426 M187.000 335.091 C 187.220 335.323,188.480 336.101,189.800 336.821 C 191.120 337.541,192.020 337.941,191.800 337.709 C 191.580 337.477,190.320 336.699,189.000 335.979 C 187.680 335.259,186.780 334.859,187.000 335.091 M211.100 335.826 C 210.055 336.370,209.200 336.905,209.200 337.014 C 209.200 337.124,210.100 336.757,211.200 336.200 C 212.300 335.643,213.200 335.100,213.200 334.993 C 213.200 334.729,213.236 334.714,211.100 335.826 M207.100 338.027 C 206.275 338.463,205.600 338.908,205.600 339.018 C 205.600 339.127,206.320 338.849,207.200 338.400 C 208.080 337.951,208.800 337.497,208.800 337.392 C 208.800 337.130,208.797 337.131,207.100 338.027 M192.400 338.146 C 192.400 339.018,200.180 342.680,200.597 342.005 C 200.737 341.779,200.578 341.710,200.229 341.844 C 199.882 341.977,198.179 341.257,196.308 340.186 C 194.489 339.145,192.865 338.216,192.700 338.123 C 192.535 338.029,192.400 338.040,192.400 338.146 M203.100 340.226 C 202.055 340.770,201.200 341.305,201.200 341.414 C 201.200 341.524,202.100 341.157,203.200 340.600 C 204.300 340.043,205.200 339.500,205.200 339.393 C 205.200 339.129,205.236 339.114,203.100 340.226 " stroke="none" fill="#c5d0d5" fill-rule="evenodd"></path></g></svg>